<?xml version="1.0" encoding="UTF-8" standalone="no"?>
<!-- Created with Inkscape (http://www.inkscape.org/) -->

<svg
   xmlns:dc="http://purl.org/dc/elements/1.1/"
   xmlns:cc="http://creativecommons.org/ns#"
   xmlns:rdf="http://www.w3.org/1999/02/22-rdf-syntax-ns#"
   xmlns:svg="http://www.w3.org/2000/svg"
   xmlns="http://www.w3.org/2000/svg"
   xmlns:sodipodi="http://sodipodi.sourceforge.net/DTD/sodipodi-0.dtd"
   xmlns:inkscape="http://www.inkscape.org/namespaces/inkscape"
   width="128"
   height="128"
   viewBox="0 0 128 128"
   id="svg4151"
   version="1.1"
   inkscape:version="0.91 r13725"
   sodipodi:docname="os_altlinux.svg"
   inkscape:export-filename="/home/munlik/Pictures/128/os_altlinux.png"
   inkscape:export-xdpi="90"
   inkscape:export-ydpi="90">
  <defs
     id="defs4153" />
  <sodipodi:namedview
     id="base"
     pagecolor="#ffffff"
     bordercolor="#666666"
     borderopacity="1.0"
     inkscape:pageopacity="0.0"
     inkscape:pageshadow="2"
     inkscape:zoom="5.6"
     inkscape:cx="36.128683"
     inkscape:cy="46.422406"
     inkscape:document-units="px"
     inkscape:current-layer="layer3"
     showgrid="false"
     units="px"
     inkscape:window-width="1366"
     inkscape:window-height="713"
     inkscape:window-x="0"
     inkscape:window-y="27"
     inkscape:window-maximized="1"
     showguides="false" />
  <metadata
     id="metadata4156">
    <rdf:RDF>
      <cc:Work
         rdf:about="">
        <dc:format>image/svg+xml</dc:format>
        <dc:type
           rdf:resource="http://purl.org/dc/dcmitype/StillImage" />
        <dc:title />
        <cc:license
           rdf:resource="" />
        <dc:creator>
          <cc:Agent>
            <dc:title />
          </cc:Agent>
        </dc:creator>
        <dc:publisher>
          <cc:Agent>
            <dc:title />
          </cc:Agent>
        </dc:publisher>
      </cc:Work>
    </rdf:RDF>
  </metadata>
  <g
     inkscape:label="Layer 1"
     inkscape:groupmode="layer"
     id="layer1"
     transform="translate(0,-924.3622)"
     style="display:inline">
    <rect
       style="opacity:1;fill:#fcc454;fill-opacity:1;stroke:none;stroke-width:2;stroke-linecap:butt;stroke-linejoin:miter;stroke-miterlimit:4;stroke-dasharray:none;stroke-dashoffset:0;stroke-opacity:1"
       id="rect4791"
       width="78"
       height="44"
       x="25"
       y="990.36218"
       rx="0"
       ry="0" />
  </g>
  <g
     inkscape:groupmode="layer"
     id="layer2"
     inkscape:label="Layer 2"
     transform="translate(0,-325.5433)"
     style="display:inline">
    <path
       style="display:inline;fill:#f2f2f2;fill-opacity:1;stroke:#333333;stroke-opacity:1"
       d="m 71.8125,355.60582 c -1.5,0.0999 -2.525,0.69411 -3.125,1.09375 -1.1,0.69936 -1.875,1.59511 -2.875,3.09375 -0.9,1.49863 -1.4125,2.60834 -2.3125,4.90625 l -0.5,1.3125 c -2.2,5.19527 -2.49375,5.57527 -3.09375,5.875 -0.5,0.29973 -1,0.40625 -1.5,0.40625 -0.4,0 -0.71875,0.006 -1.21875,-0.0937 -0.6,-0.0999 -1.19375,-0.21875 -2.09375,-0.21875 -0.6,0 -1.20625,0.11884 -1.90625,0.21875 -0.6,0.0999 -2.3875,0.38207 -4.1875,1.28125 -1.8,0.99909 -3.3,2.40237 -5,5 -2.8,4.39599 -4.9,9.88662 -6,15.78125 -0.6,2.89736 -1.0125,5.20916 -0.8125,8.40625 0.1,2.09809 0.4125,3.40762 0.8125,4.90625 0.4,1.59855 0.7875,3.48425 1.1875,6.78125 0.2,2.19799 0.21875,2.98814 0.21875,3.6875 0,0.69936 -0.0125,1.41423 0.1875,3.3125 0,0.39963 0.09375,0.69411 0.09375,1.09375 0.3,2.2979 0.50625,4.00752 -0.59375,5.40625 -0.2,0.19982 -0.3,0.39394 -0.5,0.59375 -0.2,0.0999 -0.29375,0.29402 -0.59375,0.59375 l 13.3125,0 c 0.4,-0.0999 0.975,-0.31296 1.375,-0.8125 0.4,-0.49955 0.525,-0.98152 0.625,-1.28125 0.3,-1.39873 0.075,-2.99521 -0.125,-4.59375 -0.1,-0.99909 -0.1875,-1.91332 -0.1875,-2.8125 0,-0.79927 0.4125,-1.99612 1.3125,-4.59375 l 0.09375,-0.40625 c 0.7,-1.89827 1.1,-2.87591 1.5,-3.875 0.4,-0.89918 0.6875,-1.69502 1.1875,-3.09375 0.3,-0.99909 1.11875,-3.40898 1.71875,-6.40625 0.5,-2.79745 0.5875,-5.29493 0.6875,-6.59375 0.1,-1.19891 0.10625,-1.3125 0.40625,-1.3125 0.3,0 0.28125,0.10082 0.28125,1 0,0.99909 0.10625,2.79584 0.40625,5.09375 0.2,1.39873 0.6125,3.42655 1.3125,5.125 0.7,1.79837 1.1,2.69457 2,3.59375 0.5,0.49954 1,0.70027 1.5,1 0.7,0.39963 1.39375,0.78832 2.09375,1.6875 0.3,0.39964 0.79375,1.09466 1.09375,2.09375 0.2,0.69936 0.09375,1.09421 0.09375,1.59375 0,0.39964 -0.1,0.80064 0,1.5 0.1,1.59854 0.7,2.80679 1,3.40625 0.4,0.89918 0.825,1.29402 1.125,1.59375 0.3,0.29973 0.575,0.58804 0.875,1.1875 1.1,2.2979 0.525,4.79539 0.125,6.59375 0,0.0999 -0.125,0.2126 -0.125,0.3125 l 9.84375,0 c 1.123487,-0.95611 2.579993,-2.28278 3.15625,-3.1875 1.5,-2.49772 1.625,-5.10835 1.625,-7.40625 0.1,-2.89737 -0.525,-4.3953 -1.125,-6.09375 -0.5,-1.39873 -1.075,-2.98995 -1.375,-5.6875 -0.5,-4.99545 0.4,-9.30291 1,-12.5 0.4,-1.99818 0.79375,-3.276 1.09375,-4.375 0.5,-1.69845 0.79375,-2.60789 0.59375,-4.40625 -0.2,-1.79836 -0.70625,-2.61359 -1.40625,-3.8125 -0.6,-0.99909 -1.38125,-2.38343 -2.28125,-4.78125 -0.6,-1.49869 -2.1125,-5.79862 -2.8125,-11.0938 l -0.09375,-0.40625 c -0.3,-1.79836 -0.59375,-3.9895 -2.09375,-6.1875 -0.7,-0.99909 -1.5,-1.8068 -2.5,-2.40625 -0.7,-0.39964 -1.8125,-1.09375 -3.3125,-1.09375 l -0.1875,0 z"
       id="path22"
       inkscape:connector-curvature="0" />
  </g>
  <g
     inkscape:groupmode="layer"
     id="layer5"
     inkscape:label="Layer 5"
     style="display:inline">
    <path
       d="m 67.615503,19.11677 c 2.112521,1.496179 3.017888,3.690575 3.319677,4.488537 0.502981,1.196944 0.502981,1.994906 0.603577,2.294142 0,0.498726 0.100596,1.296688 -0.201192,2.294141 -0.100597,0.398981 -0.201193,0.797962 -0.603578,1.196944 -0.80477,1.097198 -2.011925,1.196943 -2.011925,1.496179 0,0.19949 0.905366,0.09974 1.911329,0.498726 1.005962,0.398981 1.60954,0.997453 2.011925,1.496179 1.005963,1.196944 1.408348,2.593378 1.710137,4.688028 0.502981,3.491085 0.100596,4.289047 0.502981,7.979623 0.301789,2.693122 0.502981,2.693122 0.603577,4.588283 0.100597,2.493632 -0.301788,4.488537 -0.603577,5.785226 -0.502981,2.593377 -0.905366,2.693122 -1.710137,6.184207 -0.603577,2.593377 -1.005962,3.890066 -1.005962,5.685481 -0.100597,1.994905 0.201192,3.491085 0.704174,6.583188 0.201192,0.997453 0.502981,2.892613 1.408347,5.186755 0,0 0.704174,1.595924 2.213118,2.892613 0.301789,0.299236 0.704174,0.498726 1.106559,0.498726 0.603578,-0.09974 0.905366,-0.797962 1.005963,-0.997453 0.80477,-1.695669 -0.100597,-3.491084 -0.301789,-6.483443 -0.201193,-2.792867 0.301789,-4.887518 0.502981,-5.386245 0,-0.09974 0.402385,-1.097198 1.106559,-3.092103 1.508944,-3.989812 -0.100596,0.19949 1.207155,-3.092104 0.603578,-1.595924 0.905367,-2.393877 1.60954,-2.593377 0.301789,-0.09975 0.804771,-0.199491 1.005963,0.09975 0.301789,0.398981 -0.100596,1.097208 -0.301789,1.496179 0,0 -0.301788,0.598472 -2.213117,4.588283 -1.005963,2.094651 -1.307752,3.989811 -1.408348,4.987264 -0.201193,1.396434 -0.201193,2.593377 -0.201193,3.291594 0,0.997453 0,1.994906 0.301789,3.291594 0.201193,0.897708 0.402385,2.094651 1.106559,3.291595 0.704174,1.196943 1.005963,1.097198 2.213118,2.693122 0.603577,0.897708 1.207155,1.595925 1.60954,2.693123 0.502981,1.196943 0.603578,2.194396 0.80477,3.391339 0.100596,1.296689 0.301789,2.294141 0,3.690575 -0.301789,1.49618 -0.80477,2.493632 -1.207155,3.191849 -0.80477,1.296696 -1.810733,2.09466 -2.514907,2.69314 -1.005962,0.79796 -1.810732,1.29668 -3.017888,1.9949 -1.710136,0.99745 -2.41431,1.19694 -2.514906,1.29669 l 21.628197,0 c 0.100596,-0.49873 -1.508944,-0.89771 -5.331602,-3.79032 -0.502982,-0.398974 -1.408348,-1.097212 -2.011926,-2.294145 -0.502981,-0.897717 -0.603577,-1.795425 -0.704173,-2.393897 -0.301789,-3.191849 0.502981,-5.785216 0.502981,-5.785216 1.710136,-5.785231 2.313714,-13.365882 2.41431,-14.562826 0.201193,-2.493631 -0.201192,-5.286499 -0.905366,-10.97198 -0.905367,-6.882414 -1.508944,-7.580641 -4.225043,-19.550075 -0.402385,-1.89516 -0.704174,-2.493632 -1.207155,-3.491085 -1.005963,-1.795405 -2.011926,-1.89516 -2.615503,-3.491084 C 83.409116,36.372713 83.710905,35.774231 83.610309,33.48009 83.509713,31.485184 83.409116,29.590034 82.50375,27.595129 82.101365,26.697411 81.195999,24.802251 79.083477,23.605317 78.278707,23.106591 77.976918,23.206326 76.669167,22.807345 72.242931,20.612959 71.337565,19.31626 68.822658,18.518298 66.911329,17.919836 65.379614,17.841711 65,18.119327 c 0.513393,-0.04324 1.207155,0 2.615503,0.997453 z"
       id="path28"
       inkscape:connector-curvature="0"
       style="display:inline;fill:#333333;fill-opacity:1;stroke:none"
       sodipodi:nodetypes="cccccsscscccccccccccccccccccscscccccccccccccccccccccccccc" />
    <path
       d="M 32.501646,102.88944 C 31.500987,103.49521 30.700461,103.79809 30,104.00001 l 11.207373,0 c 0.100065,-0.10096 0.300197,-0.20192 0.400263,-0.30288 0.600395,-0.50481 1.500987,-1.21154 2.001316,-2.52405 0.400264,-1.11057 0.200132,-2.322104 -0.200131,-4.644214 -0.200132,-1.00962 -0.400264,-2.22115 -1.000659,-4.03846 -0.70046,-2.42308 -1.000658,-2.32212 -1.801184,-4.84616 -0.300198,-0.80769 -1.100725,-3.43269 -1.500988,-6.56249 -0.100066,-0.50481 0,0 -0.200131,-2.32212 -0.100066,-1.21154 -0.200132,-2.01923 0.100065,-2.92788 0.100066,-0.30289 0.300198,-1.00962 0.600395,-1.11058 0.400264,0 0.700461,0.90865 0.700461,1.11058 0.200132,0.70673 0.100066,1.3125 0.100066,1.41346 0,0 -0.200132,0.90865 -0.100066,3.33173 0,1.3125 0.100066,3.33173 1.000658,3.63461 0.50033,0.20193 1.20079,-0.40384 1.601054,-0.80769 1.100724,-0.90865 1.500987,-2.12019 1.701119,-2.625 1.000658,-2.92788 1.300855,-5.14904 1.300855,-5.14904 1.000659,-7.26923 1.000659,-6.66346 1.000659,-7.16826 0.100065,-5.04808 -1.601054,-6.46154 -0.600395,-10.19712 0.500329,-1.91827 1.400921,-3.23077 1.701119,-3.73557 0.800526,-1.11058 3.202106,-4.44231 6.70441,-4.13943 2.601712,0.20193 4.502962,2.42308 5.203423,4.13943 0.900592,2.01923 0,2.72596 0.600395,5.35096 0.800527,3.53365 2.801843,3.63461 4.302831,7.37019 1.701119,4.24038 0.70046,7.97596 1.300855,8.07692 0.600395,0.10096 1.400922,-2.72596 1.801185,-4.13942 0.500329,-1.81731 0.600395,-2.52404 1.000658,-4.03846 0.800527,-3.33173 1.500988,-3.53366 1.901251,-5.35096 0.800527,-4.03847 -1.400921,-7.67308 -2.001316,-8.48077 -1.400922,-2.22116 -2.901909,-3.33173 -5.703753,-5.35096 -2.201448,-1.61539 -3.802501,-2.72596 -6.204081,-3.53366 -1.100724,-0.40384 -5.103357,-1.71634 -9.606319,-0.30288 -4.603028,1.41346 -7.104674,4.74519 -8.405529,6.46154 -5.703753,7.67307 -5.103358,17.36538 -4.80316,23.22115 0.700461,11.0048 4.603028,22.41345 1.601053,26.14904 -1.400921,1.817284 -3.202106,2.927874 -3.202106,2.927874 z"
       id="path26"
       inkscape:connector-curvature="0"
       style="display:inline;fill:#333333;stroke:none;fill-opacity:1" />
  </g>
  <g
     inkscape:groupmode="layer"
     id="layer3"
     inkscape:label="Layer 3"
     style="display:inline">
    <path
       d="m 67.925101,55.21602 c -0.09173,-0.428332 -0.275195,-1.541997 -1.284241,-2.569996 -0.458658,-0.428333 -1.100779,-1.027998 -2.109826,-0.942332 -0.642121,0.08567 -1.375973,0.428333 -1.742899,0.942332 -0.458658,0.685332 0,1.370665 -0.275195,1.456331 -1.986085,-1.612592 -3.62371,-4.002829 -6.986449,-3.922702 2.109825,0.658338 3.858666,2.466371 4.592519,3.837036 0.825583,1.627664 0.375835,2.312996 0.742762,4.283327 0.812052,-0.115716 1.107054,-0.682679 1.559436,-0.942332 0.550389,-0.342666 1.19251,-0.685332 1.926363,-0.599665 0.917315,0.08566 1.009047,0.856665 1.834631,0.856665 1.482262,-0.224837 1.819732,-1.160932 1.742899,-2.398664 z"
       id="path30"
       inkscape:connector-curvature="0"
       style="fill:#f26622;fill-opacity:1;stroke:none"
       sodipodi:nodetypes="cccccccccccc" />
    <path
       d="m 66.1,65.100013 c 0.3,-0.2 0.8,-0.2 1.1,0 0.4,0.2 0.6,0.8 0.6,2.5 0.1,1.4 0.1,2.1 -0.1,3.2 -0.3,2 -1,4.2 -1.3,4.2 -0.3,0 0.2,-1.7 -0.1,-4.4 -0.2,-3.2 -1,-4.9 -0.2,-5.5 z"
       id="path32"
       inkscape:connector-curvature="0"
       style="fill:#f26622;stroke:none;fill-opacity:1" />
    <path
       d="m 66.712662,18.073563 c 2.89418,0.712555 4.259764,1.486342 6.15683,3.364586 1.316748,1.323068 1.696759,1.689657 2.880779,3.280834 0.288361,0.49176 0.288361,0.786816 0.192241,0.98352 -0.09612,0.295056 -0.384482,0.49176 -0.576723,0.590112 -0.576723,0.09835 -1.249567,-0.786816 -2.306893,-2.458801 -2.165513,-3.185729 -4.380436,-4.880272 -6.346234,-5.760251 z"
       id="path34"
       inkscape:connector-curvature="0"
       style="fill:#f26622;fill-opacity:1;stroke:none"
       sodipodi:nodetypes="ccccccc" />
    <path
       d="m 80.370538,28.702868 c -0.376791,-0.157836 -1.346846,-0.235119 -2.002702,0.145833 -0.562162,0.476191 -0.843244,0.952381 -1.030631,1.428572 -0.468468,0.857143 -0.281081,1.238095 -0.655856,1.428571 -1.673869,0.494275 -2.451166,-0.646297 -3.466666,-1.523807 -0.627186,-0.562375 -0.952413,-0.862103 -1.445078,-0.9747 -0.317287,0.651163 -0.429761,0.929858 -1.679282,1.691594 4.536717,1.120471 4.680359,6.664241 4.665051,10.66963 0.835491,-2.573125 0.391494,-5.116801 0.145803,-7.481759 0,-0.47619 0,-0.761904 0.281081,-1.047619 0.468469,-0.47619 1.405405,-0.47619 1.967568,-0.09524 0.466958,0.930224 0.895646,1.365326 1.842307,1.71375 0.655855,0.190476 0.968503,0.191012 1.436972,0.09577 0.374775,-0.09524 0.655856,-0.380952 0.843243,-0.571428 1.56274,-1.842981 0.488452,-4.510775 -0.90181,-5.479167 z"
       id="path36"
       inkscape:connector-curvature="0"
       style="fill:#f26622;fill-opacity:1;stroke:none"
       sodipodi:nodetypes="cccccccccsccccc" />
  </g>
  <g
     inkscape:groupmode="layer"
     id="layer4"
     inkscape:label="Layer 4"
     style="display:inline">
    <path
       d="m 61.2,87.600016 c 0.2,0.1 0.8,0.6 1,1.3 0.1,0.5 0,0.7 -0.2,1.5 -0.1,0.4 -0.3,1.4 -0.1,2.5 0.1,0.6 0.3,1.1 0.8,2 0.7,1.4 0.9,1.5 1.1,2.2 0.1,0.3 0.3,1.3 -0.1,2.3 -0.6,1.199994 -1.6,0.999994 -2.2,2.199994 -0.4,0.8 -0.4,1.7 0,2.4 l 1.4,0 c -0.1,-0.4 -0.2,-0.9 0,-1.2 0.2,-0.2 0.5,-0.2 0.6,-0.1 0.3,0.1 0.4,0.6 0.3,1.3 l 9.9,0 c 0,-0.1 0,-0.2 0,-0.3 0,-2.9 -0.1,-4.299994 -0.1,-4.399994 -0.3,-2.5 -1.1,-2.4 -2.1,-6.1 -0.3,-1.3 -0.4,-2 -0.9,-3.7 -0.7,-2.2 -1.2,-2.9 -1.6,-3.4 -0.5,-0.6 -1.4,-1.6 -2.8,-1.8 -0.6,-0.1 -1.6,0 -2.4,0.5 -0.4,0.2 -0.5,0.4 -1,0.6 -0.6,0.3 -0.8,0.2 -1.5,0.5 -0.4,0.2 -1.5,0.6 -1.5,0.9 0,0.3 0.6,0.3 1.4,0.8 z"
       id="path14-8"
       inkscape:connector-curvature="0"
       style="display:inline;fill:#333333;stroke:none;fill-opacity:1" />
    <path
       stroke-miterlimit="10"
       d="m 70.399999,99.600036 c -0.5,-1.000016 -0.8,-1.000016 -1.1,-1.800016 -0.3,-0.7 0,-0.8 -0.3,-1.8 -0.1,-0.4 -0.3,-1.3 -1,-2.3 -0.5,-0.7 -0.7,-0.7 -0.9,-1.2 -0.1,-0.6 0.2,-1 -0.1,-1.3 -0.2,-0.2 -0.5,-0.1 -1.4,-0.1 -0.7,0 -1.6,-0.1 -1.6,-0.2 0,-0.2 1.5,0 2.4,-0.9 0.8,-0.8 0.8,-1.8 0.8,-2 0,-0.3 0,-1.3 -0.8,-2 -0.5,-0.5 -1.1,-0.5 -1.3,-0.6 -0.7,-0.1 -1.6,0.1 -2,0.8 -0.4,0.8 0.3,1.5 -0.1,2 -0.3,0.3 -0.799999,0.2 -1.299999,0.1 0.1,0.2 0.2,0.4 0.3,0.6 0.1,0.5 0,0.7 -0.2,1.5 -0.1,0.4 -0.3,1.4 -0.1,2.5 0.1,0.6 0.3,1.1 0.799999,2 0.7,1.4 0.9,1.5 1.1,2.2 0,0.2 0.1,0.6 0.1,1.1 0.4,0.2 0.7,0.4 1,0.8 0.6,0.900016 0.6,1.50001 0.6,1.50001 0,0.4 0,0.6 0.1,1.1 0.1,0.2 0.2,0.5 0.6,0.8 0.3,0.2 0.9,0.4 1.1,0.1 0.2,-0.2 0,-0.5 0.2,-0.8 0.2,-0.3 0.6,-0.4 1,-0.5 0.1,0 0.4,-0.1 0.8,-0.1 0.3,0 0.6,0 1,0.2 0.4,0.2 0.5,0.5 0.6,0.4 0.3,-0.1 0.2,-1.1 -0.3,-2.099994 z"
       id="path16"
       inkscape:connector-curvature="0"
       style="display:inline;fill:#f2f2f2;stroke:#333333;stroke-width:0.5;stroke-miterlimit:10;stroke-opacity:1" />
    <rect
       x="64.400002"
       y="86.500008"
       width="1.6"
       height="0.80000001"
       id="rect18"
       style="display:inline;fill:#414042;stroke:none" />
  </g>
</svg>
