<?xml version="1.0" encoding="UTF-8" standalone="no"?>
<!-- Created with Inkscape (http://www.inkscape.org/) -->

<svg
   xmlns:dc="http://purl.org/dc/elements/1.1/"
   xmlns:cc="http://creativecommons.org/ns#"
   xmlns:rdf="http://www.w3.org/1999/02/22-rdf-syntax-ns#"
   xmlns:svg="http://www.w3.org/2000/svg"
   xmlns="http://www.w3.org/2000/svg"
   xmlns:sodipodi="http://sodipodi.sourceforge.net/DTD/sodipodi-0.dtd"
   xmlns:inkscape="http://www.inkscape.org/namespaces/inkscape"
   width="128"
   height="128"
   viewBox="0 0 128 128"
   id="svg2"
   version="1.1"
   inkscape:version="0.91 r13725"
   sodipodi:docname="os_linux.svg"
   inkscape:export-filename="/home/munlik/Pictures/128/os_linux.png"
   inkscape:export-xdpi="90"
   inkscape:export-ydpi="90">
  <defs
     id="defs4">
    <radialGradient
       id="b-1"
       cx="65.467201"
       cy="61.952"
       r="39.291599"
       gradientTransform="matrix(1,0,0,3,0,-123.9039)"
       gradientUnits="userSpaceOnUse">
      <stop
         offset="0.42593944"
         style="stop-color:#303033;stop-opacity:1"
         id="stop6300" />
      <stop
         offset="0.8265"
         style="stop-color:#595859;stop-opacity:1"
         id="stop6302" />
    </radialGradient>
    <radialGradient
       gradientUnits="userSpaceOnUse"
       gradientTransform="matrix(1,0,0,3,0,-123.9039)"
       r="39.291599"
       cy="61.952"
       cx="65.467201"
       id="b-09">
      <stop
         id="stop9-7"
         style="stop-color:#222223"
         offset="0.5153" />
      <stop
         id="stop11-0"
         style="stop-color:#414042"
         offset="0.8265" />
    </radialGradient>
    <radialGradient
       gradientUnits="userSpaceOnUse"
       r="25.5763"
       cy="72.558296"
       cx="62.269001"
       id="w-0">
      <stop
         id="stop16-7-5"
         style="stop-color:#FFFFFF"
         offset="0" />
      <stop
         id="stop18-0-3"
         style="stop-color:#F1F2F2"
         offset="0.4235" />
      <stop
         id="stop20-0-7"
         style="stop-color:#E6E7E8"
         offset="0.6888" />
      <stop
         id="stop22-5-2"
         style="stop-color:#D1D3D4"
         offset="0.8724" />
      <stop
         id="stop24-1-9"
         style="stop-color:#BCBEC0"
         offset="1" />
    </radialGradient>
    <linearGradient
       y2="36.469898"
       x2="55.064201"
       y1="34.530899"
       x1="55.064201"
       gradientUnits="userSpaceOnUse"
       id="alpha2-9">
      <stop
         id="stop111-6"
         style="stop-color:#FFFFFF;stop-opacity:0.4"
         offset="0" />
      <stop
         id="stop113-2"
         style="stop-color:#FFFFFF;stop-opacity:0.1"
         offset="0.4133" />
      <stop
         id="stop115-4"
         style="stop-color:#FFFFFF;stop-opacity:0"
         offset="0.7806" />
    </linearGradient>
    <radialGradient
       gradientUnits="userSpaceOnUse"
       r="2.3979001"
       cy="36.276001"
       cx="55.452"
       id="b-7">
      <stop
         id="stop104-0-0-4"
         style="stop-color:#3D3D3E"
         offset="0" />
      <stop
         id="stop106-3-9-9"
         style="stop-color:#000000"
         offset="1" />
    </radialGradient>
    <linearGradient
       y2="35.888199"
       x2="66.455704"
       y1="33.270599"
       x1="66.455704"
       gradientUnits="userSpaceOnUse"
       id="alpha1-6">
      <stop
         id="stop95-7"
         style="stop-color:#FFFFFF;stop-opacity:0.4"
         offset="0" />
      <stop
         id="stop97-3"
         style="stop-color:#FFFFFF;stop-opacity:0.1"
         offset="0.4133" />
      <stop
         id="stop99-0"
         style="stop-color:#FFFFFF;stop-opacity:0"
         offset="0.7806" />
    </linearGradient>
    <radialGradient
       gradientUnits="userSpaceOnUse"
       r="3.1759"
       cy="35.742802"
       cx="67.2313"
       id="b-6">
      <stop
         id="stop88-6-2"
         style="stop-color:#3D3D3E"
         offset="0" />
      <stop
         id="stop90-3-6"
         style="stop-color:#000000"
         offset="1" />
    </radialGradient>
    <radialGradient
       gradientUnits="userSpaceOnUse"
       r="5.2070999"
       cy="35.866001"
       cx="55.521301"
       id="w-1">
      <stop
         id="stop79-2-9"
         style="stop-color:#FFFFFF"
         offset="0.5612" />
      <stop
         id="stop81-5-9"
         style="stop-color:#F1F2F2"
         offset="0.75" />
      <stop
         id="stop83-2-1"
         style="stop-color:#BCBEC0"
         offset="1" />
    </radialGradient>
    <radialGradient
       gradientUnits="userSpaceOnUse"
       r="6.3966999"
       cy="36.410301"
       cx="67.464699"
       id="w-7">
      <stop
         id="stop72-6-6"
         style="stop-color:#FFFFFF"
         offset="0.6735" />
      <stop
         id="stop74-0-0"
         style="stop-color:#BCBEC0"
         offset="1" />
    </radialGradient>
    <radialGradient
       gradientUnits="userSpaceOnUse"
       r="2.3979001"
       cy="36.276001"
       cx="55.452"
       id="b-0">
      <stop
         id="stop104"
         style="stop-color:#373738;stop-opacity:1"
         offset="0" />
      <stop
         id="stop106"
         style="stop-color:#1a1a1a;stop-opacity:1"
         offset="1" />
    </radialGradient>
    <linearGradient
       y2="43.391998"
       x2="72.872498"
       y1="43.391998"
       x1="51.662498"
       gradientUnits="userSpaceOnUse"
       id="y-5">
      <stop
         id="stop137-7"
         style="stop-color:#FFF33B"
         offset="0" />
      <stop
         id="stop139-2"
         style="stop-color:#FFE029"
         offset="5.948725e-002" />
      <stop
         id="stop141-5"
         style="stop-color:#FFD218"
         offset="0.1303" />
      <stop
         id="stop143-0"
         style="stop-color:#FEC90F"
         offset="0.2032" />
      <stop
         id="stop145-7"
         style="stop-color:#FDC70C"
         offset="0.2809" />
      <stop
         id="stop147-1"
         style="stop-color:#F3903F"
         offset="0.6685" />
      <stop
         id="stop149-9"
         style="stop-color:#ED683C"
         offset="1" />
    </linearGradient>
    <linearGradient
       y2="43.546501"
       x2="73.233902"
       y1="43.546501"
       x1="51.6357"
       gradientUnits="userSpaceOnUse"
       id="y-9">
      <stop
         id="stop120-8"
         style="stop-color:#FDB93E"
         offset="0" />
      <stop
         id="stop122-9"
         style="stop-color:#FDB83C"
         offset="6.566175e-003" />
      <stop
         id="stop124-6"
         style="stop-color:#FAAE29"
         offset="9.430166e-002" />
      <stop
         id="stop126-0"
         style="stop-color:#F8A71E"
         offset="0.1846" />
      <stop
         id="stop128-1"
         style="stop-color:#F8A51B"
         offset="0.2809" />
      <stop
         id="stop130-2"
         style="stop-color:#C87833"
         offset="0.6685" />
      <stop
         id="stop132-2"
         style="stop-color:#B04D2A"
         offset="1" />
    </linearGradient>
    <linearGradient
       y2="96.099297"
       x2="55.089001"
       y1="96.099297"
       x1="23.772301"
       gradientUnits="userSpaceOnUse"
       id="y-55">
      <stop
         id="stop48-0"
         style="stop-color:#ffd93b;stop-opacity:1;"
         offset="0" />
      <stop
         id="stop50-3"
         style="stop-color:#ffcc29;stop-opacity:1;"
         offset="0.05948725" />
      <stop
         id="stop52-5"
         style="stop-color:#ffbf18;stop-opacity:1;"
         offset="0.1303" />
      <stop
         id="stop54-0"
         style="stop-color:#feb20f;stop-opacity:1;"
         offset="0.2032" />
      <stop
         id="stop56-0"
         style="stop-color:#fda40c;stop-opacity:1;"
         offset="0.2809" />
      <stop
         id="stop58-2"
         style="stop-color:#f3923f;stop-opacity:1;"
         offset="0.66850001" />
      <stop
         id="stop60-8"
         style="stop-color:#ed683c;stop-opacity:1;"
         offset="1" />
    </linearGradient>
    <radialGradient
       gradientUnits="userSpaceOnUse"
       r="5.8449998"
       cy="84.420303"
       cx="88.170097"
       id="b-9">
      <stop
         id="stop65-3"
         style="stop-color:#000000"
         offset="0.3673" />
      <stop
         id="stop67-4"
         style="stop-color:#3D3D3E"
         offset="1" />
    </radialGradient>
    <radialGradient
       id="b-1-2"
       cx="65.467201"
       cy="61.952"
       r="39.291599"
       gradientTransform="matrix(1,0,0,3,0,-123.9039)"
       gradientUnits="userSpaceOnUse">
      <stop
         offset="0.42593944"
         style="stop-color:#18181a;stop-opacity:1"
         id="stop6300-6" />
      <stop
         offset="0.8265"
         style="stop-color:#333333;stop-opacity:1"
         id="stop6302-8" />
    </radialGradient>
    <radialGradient
       gradientUnits="userSpaceOnUse"
       r="25.5763"
       cy="72.558296"
       cx="62.269001"
       id="w-0-2">
      <stop
         id="stop16-7-5-2"
         style="stop-color:#FFFFFF"
         offset="0" />
      <stop
         id="stop18-0-3-8"
         style="stop-color:#F1F2F2"
         offset="0.4235" />
      <stop
         id="stop20-0-7-0"
         style="stop-color:#E6E7E8"
         offset="0.6888" />
      <stop
         id="stop22-5-2-8"
         style="stop-color:#D1D3D4"
         offset="0.8724" />
      <stop
         id="stop24-1-9-0"
         style="stop-color:#BCBEC0"
         offset="1" />
    </radialGradient>
  </defs>
  <sodipodi:namedview
     id="base"
     pagecolor="#ffffff"
     bordercolor="#666666"
     borderopacity="1.0"
     inkscape:pageopacity="0.0"
     inkscape:pageshadow="2"
     inkscape:zoom="2.0000001"
     inkscape:cx="62.375684"
     inkscape:cy="28.336533"
     inkscape:document-units="px"
     inkscape:current-layer="layer2"
     showgrid="false"
     units="px"
     inkscape:window-width="1366"
     inkscape:window-height="713"
     inkscape:window-x="0"
     inkscape:window-y="27"
     inkscape:window-maximized="1"
     inkscape:snap-nodes="false" />
  <metadata
     id="metadata7">
    <rdf:RDF>
      <cc:Work
         rdf:about="">
        <dc:format>image/svg+xml</dc:format>
        <dc:type
           rdf:resource="http://purl.org/dc/dcmitype/StillImage" />
        <dc:title />
        <dc:creator>
          <cc:Agent>
            <dc:title />
          </cc:Agent>
        </dc:creator>
        <dc:publisher>
          <cc:Agent>
            <dc:title />
          </cc:Agent>
        </dc:publisher>
        <cc:license
           rdf:resource="" />
      </cc:Work>
    </rdf:RDF>
  </metadata>
  <g
     inkscape:label="Layer 1"
     inkscape:groupmode="layer"
     id="layer1"
     transform="translate(0,-924.36216)"
     style="display:inline">
    <path
       inkscape:connector-curvature="0"
       style="display:inline;fill:#333333;fill-opacity:1;stroke:none"
       id="path13-0"
       d="m 39.268405,990.16305 c 1.6,-4.6 5.9,-10.6 9,-13.6 0.3,-0.3 0.9,-0.8 1.4,-1.8 1.1,-2 0.7,-4.1 0.5,-5.2 -0.1,-0.9 -0.4,-3.8 -0.8,-9.7 0,-0.3 -0.4,-5.6 0.4,-9.3 0.428861,-1.98798 1.339139,-4.0311 2.5,-5.5 2.753189,-3.0269 7.220422,-4.29588 10.3,-4.5 2.25,-0.0625 4.6375,0.0875 6.9,1.2 3.574077,1.64966 5.967315,3.47805 7.8,7.5 1.52946,3.805 1.299927,7.83393 1.3,10.1 -0.0365,4.17966 0.702218,7.36359 1.8,10 1.6,3.8 2.7,5.6 3.4,6.7 3.978572,5.51089 8.933276,11.83677 11.2,18.6 1.178892,4.31873 2.091605,9.30785 1.546429,13.30005 -0.2,1.5 -0.310715,3.3 -0.710715,5.4 -0.5,2.7 -1.335714,4.1999 -2.235714,6.0999 -0.5,1.1 -1.5,2.6 -3.6,5.4 -3,4.1 -3.6,4.7 -4.1,5 -2.1,1.5 -4.2,2 -5,2.2 -1,0.2 -2.5,0.5 -4.3,0.3 -4.127183,-1.5788 -8.214779,-1.7568 -13.2,-1.6 -3.490537,-0.047 -5.661906,0.2591 -8.9,0.8 -2.6,0.5 -2.7,0.6 -3.4,0.6 -2.4,0.2 -4.3,-1.2 -6.5,-2.7 -3.1,-2.2 -4.7,-4.7 -5.2,-5.4 -0.8,-1.3 -1.4,-2.9 -2.6,-6.1 -1.1,-2.8999 -1.6,-4.6999 -1.7,-5.1999 -0.4,-1.6 -0.6,-2.7 -0.9,-4.4 -0.5,-2.8 -0.678571,-3.3768 -0.4,-4.3 1.556862,-4.39083 3.83329,-9.64625 5.5,-13.90005 z"
       sodipodi:nodetypes="ccccccccccccccccccccccccccccccc" />
  </g>
  <g
     inkscape:groupmode="layer"
     id="layer6"
     inkscape:label="Layer 2"
     style="display:inline">
    <path
       inkscape:connector-curvature="0"
       style="display:inline;fill:#e6e6e6;fill-opacity:1;stroke:none"
       d="m 70.128651,42.987998 c -0.4875,-0.0125 -0.9625,0.06328 -1.3125,0.113282 -2.7,0.4 -5.399609,0.09883 -8.099609,0.298828 -6,0.5 -6.79961,-0.09922 -7.59961,0.800781 -1.4,1.6 0.399219,3.3 -0.800781,7 -0.7,2.1 -1.4,2.199219 -3,5.199219 -1.3,2.4 -1.4,3.5 -2.5,6.5 -2.3,6.2 -3.4,6.00039 -4.5,9.90039 -0.972199,3.370315 -1.062499,6.098797 -0.894252,8.170759 1.024676,0.999702 2.678368,3.043794 5.993861,5.530413 1.7,1.3 3.200391,2.79961 4.900391,4.09961 0.2,0.2 0.900391,0.798828 1.400391,1.798828 0.4,0.9 0.40039,1.70039 0.40039,1.90039 0,0.5 0,1.201172 -0.5,1.701172 -0.6,0.6 -1.401172,0.59961 -1.701172,0.59961 -0.8,0 -1.399218,-0.3 -1.699218,-0.5 -1.491246,-0.820185 -1.542305,-0.642262 -2.546875,-1.119141 2.259635,2.747223 4.741709,5.645991 9.046875,6.917971 6.3,1.9 11.698828,-0.79883 12.798828,-1.29883 2.4,-1.2 4.101172,-2.801172 6.201172,-4.701172 2.2,-2 3.70039,-3.398538 4.90039,-5.398438 2.1,-3.5 1.998438,-6.901562 1.898438,-12.601562 -0.1,-3.30004 -0.199219,-7.698828 -2.199219,-12.798828 -0.3,-0.8 -1.299219,-2.89961 -3.199219,-7.09961 -1.3,-2.9 -1.801172,-4.001562 -2.701172,-6.101562 -1.2,-3 -1.80039,-4.498828 -1.90039,-5.298828 -0.2,-1.5 -0.2,-2.501172 -1,-3.201172 -0.4,-0.3 -0.899219,-0.39961 -1.386719,-0.41211 z"
       id="path26-2-5"
       sodipodi:nodetypes="scccccccccccsssccccccccccccs" />
  </g>
  <g
     inkscape:groupmode="layer"
     id="layer2"
     inkscape:label="Layer 7"
     style="display:inline">
    <path
       style="display:inline;fill:#dcdce1;fill-opacity:1;stroke:none"
       d="M 70.128906 42.988281 C 69.641406 42.975781 69.166406 43.051561 68.816406 43.101562 C 66.116406 43.501562 63.416797 43.200392 60.716797 43.400391 C 54.716797 43.900391 53.917188 43.301171 53.117188 44.201172 C 52.791188 44.573743 52.650653 44.956679 52.595703 45.365234 C 62.27921 48.634814 70.047022 52.278338 76.109375 55.722656 C 75.56408 54.502981 74.97988 53.216073 74.416016 51.900391 C 73.216016 48.900391 72.615625 47.401562 72.515625 46.601562 C 72.315625 45.101562 72.315625 44.100391 71.515625 43.400391 C 71.115625 43.100391 70.616406 43.000781 70.128906 42.988281 z "
       id="path26-2-5-4" />
    <path
       style="display:inline;fill:#dcdce1;fill-opacity:1;stroke:none"
       d="m 77.107422,94.617188 c -12.413746,4.531526 -18.417119,2.989576 -23.021484,0.28125 -0.04113,0.38041 -0.147709,0.782474 -0.46875,1.103515 -0.600001,0.6 -1.401172,0.599609 -1.701172,0.599609 -0.8,0 -1.399219,-0.3 -1.699219,-0.5 -1.491246,-0.820184 -1.542305,-0.642261 -2.546875,-1.11914 2.259635,2.747223 4.741709,5.645988 9.046875,6.917968 6.3,1.9 11.698828,-0.79883 12.798828,-1.29883 2.4,-1.199998 4.101172,-2.801169 6.201172,-4.701169 0.501623,-0.456021 0.957013,-0.875463 1.390625,-1.283203 z"
       id="path26-2-5-5"
       inkscape:connector-curvature="0"
       sodipodi:nodetypes="ccsscccccc" />
    <path
       style="display:inline;fill:#ceced3;fill-opacity:1;stroke:none"
       d="m 52.353913,44.982422 c 2.63785,2.686678 5.948675,6.023475 9.480469,6.019531 5.90768,-0.02656 8.241924,-3.77326 10.505667,-5.936312 -9.623082,1.894959 -12.476494,1.608565 -19.986136,-0.08322 z"
       id="path151-8-2-2"
       inkscape:connector-curvature="0"
       sodipodi:nodetypes="cccc" />
  </g>
  <g
     inkscape:groupmode="layer"
     id="layer7"
     inkscape:label="Layer 3"
     style="display:inline">
    <ellipse
       style="display:inline;fill:#d2d2d7;fill-opacity:1;stroke:none"
       id="ellipse76-7"
       ry="7.4000001"
       rx="5"
       cy="36.600876"
       cx="67.199997" />
    <ellipse
       style="display:inline;fill:#d2d2d7;fill-opacity:1;stroke:none"
       id="ellipse85-7"
       ry="6.1999998"
       rx="4.3000002"
       cy="36.100876"
       cx="55.549999" />
    <ellipse
       style="display:inline;fill:#e1e1e1;fill-opacity:1;stroke:none"
       id="ellipse76-7-4"
       ry="6"
       rx="4"
       cy="37.306396"
       cx="67.126312" />
    <ellipse
       style="display:inline;fill:#333333;fill-opacity:1;stroke:none"
       id="ellipse92-3"
       ry="3.2"
       rx="3.0999999"
       cy="36.299999"
       cx="67.016151" />
    <ellipse
       style="display:inline;fill:#4d4d4d;fill-opacity:1;stroke:none"
       id="ellipse101-5"
       ry="1.3"
       rx="1.2"
       cy="35.199963"
       cx="66.316154" />
    <ellipse
       style="display:inline;fill:#e6e6e6;stroke:none"
       id="ellipse85-7-7"
       ry="5"
       rx="3.4411764"
       cy="37.111473"
       cx="55.605885" />
    <ellipse
       style="display:inline;fill:#333333;fill-opacity:1;stroke:none"
       id="ellipse108-8"
       cy="36.799976"
       cx="55.428864"
       rx="2.4000001"
       ry="2.5999999" />
    <ellipse
       style="display:inline;fill:#4d4d4d;fill-opacity:1;stroke:none"
       id="ellipse101-5-4"
       cy="36.099346"
       cx="54.86594"
       rx="1"
       ry="1.1" />
  </g>
  <g
     inkscape:groupmode="layer"
     id="layer9"
     inkscape:label="Layer 5"
     style="display:inline">
    <path
       inkscape:connector-curvature="0"
       style="display:inline;fill:#cc7934;fill-opacity:1;stroke:none"
       id="path151-8-2"
       d="m 60.951099,50.174502 c -3.070847,0.0211 -6.260934,-3.125933 -8.520686,-4.96076 -0.814028,-0.749167 -1.383368,-1.4411 -1.280039,-2.176018 0,-0.314965 0.09617,-0.862004 1.129461,-1.70191 1.118033,-0.77965 1.899098,-1.315337 2.789882,-1.889789 1.29656,-0.847585 2.282221,-1.582553 3.306526,-2.309742 0.413316,-0.209977 1.136618,-0.524942 2.066578,-0.524942 1.015166,-0.06062 2.095557,0.112432 3.251375,0.745926 2.913316,1.594776 4.209641,2.1877 8.114807,3.873559 0.516645,0.314965 0.951362,0.6693 1.136618,1.25986 0.157501,0.833344 0.402066,1.798299 -1.029439,3.071343 -3.747056,2.902422 -6.37949,4.575721 -10.965083,4.612473 z"
       sodipodi:nodetypes="cccccccccccc" />
    <path
       sodipodi:nodetypes="ssccccccccsccsccscsccscccccccscssccs"
       style="display:inline;fill:#efaf4c;fill-opacity:1;stroke:none;stroke-width:0.2;stroke-miterlimit:10;stroke-dasharray:none;stroke-opacity:1"
       inkscape:connector-curvature="0"
       id="path45-9-2"
       d="m 82.938711,111.4 c -0.9,0 -1.7,-0.1 -2.6,-0.4 -0.6,-0.2 -2,-0.7 -3.1,-2.1 -1.3,-1.7 -1.3,-3.8 -1.2,-5.4 0,-1.4 0.3,-2 0.5,-2.9 0.2,-0.8 0.5,-1.600001 0.8,-3.200001 0.3,-2.1 0.4,-4.5 0.3,-6.7 -0.1,-1.3 -0.2,-2.3 -0.4,-3.1 -0.2,-1.5 -0.4,-2.3 0.2,-3.3 0.2,-0.3 1,-1.7 2.3,-1.9 l 0.2,0 c 0.5,0 0.8,0.2 1.3,0.4 0.5,0.3 1.2,0.6 2.1,0.7 l 0.5,0 c 0.4,0 0.8,-0.1 1.3,-0.2 0.4,-0.1 0.9,-0.3 1.7,-0.4 1.8,-0.4 3.3,-0.7 4.5,-0.7 0.8,0 1.5,0.1 2.2,0.4 0.4,0.2 1.2,0.6 1.8,1.4 0.3,0.4 0.3,0.7 0.7,2.6 l 0,0.1 c 0.4,2.2 0.5,2.6 0.8,3.2 0.3,0.6 0.7,1.4 1.5,2.1 0.4,0.3 0.7,0.4 1.2,0.6 0.299999,0.1 0.599999,0.2 1.099999,0.4 1.4,0.6 2.2,0.8 2.7,1.4 0.3,0.3 1,1.2 0.8,2.3 -0.1,0.6 -0.4,1.1 -0.7,1.4 -0.6,0.7 -1.1,0.9 -2,1.4 l -1.2,0.600001 c -0.799999,0.4 -1.499999,0.9 -2.899999,1.8 -1.1,0.8 -2.3,1.6 -3.4,2.5 -1.1,0.9 -1.6,1.3 -2.1,1.8 -0.4,0.4 -0.9,0.8 -1.7,1.4 -2.4,2 -3.7,3 -5.2,3.4 0,0 -0.8,0.4 -2,0.4 z"
       stroke-miterlimit="10" />
    <path
       sodipodi:nodetypes="cccccccsscccccccccccccccc"
       style="display:inline;fill:#efaf4c;fill-opacity:1;stroke:none;stroke-width:0.2;stroke-miterlimit:10;stroke-dasharray:none;stroke-opacity:1"
       inkscape:connector-curvature="0"
       id="path62-3-0"
       d="m 46.320138,110.49318 c -0.4,-0.1 -1.810135,-0.48353 -2.310135,-0.58353 -5.587346,-2.00813 -10.646622,-2.63109 -16.1,-4.2 -2.1,-0.6 -2.8,-1 -3.3,-1.7 -0.2,-0.2 -0.7,-1.1 -0.6,-2.2 0.920438,-2.230518 1.254248,-2.950162 1.4,-4.300013 0.1,-1.3 -0.1,-2.3 -0.5,-3.8 -0.1,-0.5 -0.3,-0.9 -0.4,-1.2 -0.2,-0.6 -0.3,-0.8 -0.3,-1.4 0,-0.4 0.1,-1.2 0.6,-1.7 0.6,-0.7 1.5,-0.7 3.2,-0.9 0.938999,-0.05671 1.96281,-0.168359 2.7,-0.3 0.6,-0.2 1.4,-0.4 2,-1 0.690379,-0.766054 0.884705,-1.8105 1.2,-2.6 0.5,-0.9 1,-1.5 1.5,-2 1.009023,-1.175549 1.88915,-1.578353 3.1,-1.8 l 0.6,0 c 1.3,0.2 2.1,1.2 3,2.2 3.033022,3.328399 4.860227,7.173052 6.8,10.7 1.484552,2.420124 3.275055,4.007077 4.8,6.400003 0.6,0.90001 1.1,1.80001 1.4,3.00001 0.442416,2.01297 -0.03174,3.65936 -0.960303,4.9397 -1.389128,1.60403 -3.768671,2.31982 -5.524589,2.51236 -1.219615,0.0619 -1.219341,0.0549 -2.304973,-0.0685 z"
       stroke-miterlimit="10" />
    <path
       style="fill:none;fill-rule:evenodd;stroke:none;stroke-width:1px;stroke-linecap:butt;stroke-linejoin:miter;stroke-opacity:1"
       d="M 59.801538,34.312178 62.074382,42.709071 59.043924,53 66.620068,45.613259 Z"
       id="path4232"
       inkscape:connector-curvature="0" />
    <path
       sodipodi:nodetypes="cccccccsscccccccccccccccc"
       style="display:inline;fill:#fcbe51;fill-opacity:1;stroke:none;stroke-width:0.2;stroke-miterlimit:10;stroke-dasharray:none;stroke-opacity:1"
       inkscape:connector-curvature="0"
       id="path62-3-0-9"
       d="m 45.823212,110.6933 c -0.4,-0.1 -1.810135,-0.48353 -2.310135,-0.58353 -5.587346,-2.00813 -10.646622,-2.63109 -16.1,-4.2 -2.1,-0.6 -2.8,-1 -3.3,-1.7 -0.2,-0.2 -0.7,-1.1 -0.6,-2.2 0.920438,-2.23051 1.254248,-2.950154 1.4,-4.300005 0.1,-1.3 -0.1,-2.3 -0.5,-3.8 -0.1,-0.5 -0.3,-0.9 -0.4,-1.2 -0.2,-0.6 -0.3,-0.8 -0.3,-1.4 0,-0.4 0.1,-1.2 0.6,-1.7 0.6,-0.7 1.5,-0.7 3.2,-0.9 0.938999,-0.05671 1.96281,-0.168359 2.7,-0.3 0.6,-0.2 1.4,-0.4 2,-1 0.690379,-0.766054 0.884705,-1.8105 1.2,-2.6 0.5,-0.9 1,-1.5 1.5,-2 1.009023,-1.175549 1.88915,-1.578353 3.1,-1.8 l 0.6,0 c 1.3,0.2 2.1,1.2 3,2.2 3.033022,3.328399 4.860227,7.173052 6.8,10.7 1.484552,2.420124 3.275055,4.007077 4.8,6.400005 0.6,0.9 1.1,1.8 1.4,3 0.442416,2.01297 -0.03174,3.65936 -0.960303,4.9397 -1.389128,1.60403 -3.768671,2.31982 -5.524589,2.51236 -1.219615,0.0619 -1.219341,0.0549 -2.304973,-0.0685 z"
       stroke-miterlimit="10" />
    <path
       sodipodi:nodetypes="ssccccccccsccsccscsccscccccccscssccs"
       style="display:inline;fill:#fcbe51;fill-opacity:1;stroke:none;stroke-width:0.2;stroke-miterlimit:10;stroke-dasharray:none;stroke-opacity:1"
       inkscape:connector-curvature="0"
       id="path45-9-2-6"
       d="m 82.616151,111.80089 c -0.9,0 -1.7,-0.1 -2.6,-0.4 -0.6,-0.2 -2,-0.7 -3.1,-2.1 -1.3,-1.7 -1.3,-3.8 -1.2,-5.4 0,-1.4 0.3,-2 0.5,-2.9 0.2,-0.8 0.5,-1.600001 0.8,-3.200001 0.3,-2.1 0.4,-4.5 0.3,-6.7 -0.1,-1.3 -0.2,-2.3 -0.4,-3.1 -0.2,-1.5 -0.4,-2.3 0.2,-3.3 0.2,-0.3 1,-1.7 2.3,-1.9 l 0.2,0 c 0.5,0 0.8,0.2 1.3,0.4 0.5,0.3 1.2,0.6 2.1,0.7 l 0.5,0 c 0.4,0 0.8,-0.1 1.3,-0.2 0.4,-0.1 0.9,-0.3 1.7,-0.4 1.8,-0.4 3.3,-0.7 4.5,-0.7 0.8,0 1.5,0.1 2.2,0.4 0.4,0.2 1.2,0.6 1.8,1.4 0.3,0.4 0.3,0.7 0.7,2.6 l 0,0.1 c 0.4,2.2 0.5,2.6 0.8,3.2 0.3,0.6 0.7,1.4 1.5,2.1 0.4,0.3 0.7,0.4 1.2,0.6 0.3,0.1 0.6,0.2 1.099999,0.4 1.4,0.6 2.2,0.8 2.7,1.4 0.3,0.3 1,1.2 0.8,2.3 -0.1,0.6 -0.4,1.1 -0.7,1.4 -0.6,0.7 -1.1,0.9 -2,1.4 l -1.199999,0.600001 c -0.8,0.4 -1.5,0.9 -2.9,1.8 -1.1,0.8 -2.3,1.6 -3.4,2.5 -1.1,0.9 -1.6,1.3 -2.1,1.8 -0.4,0.4 -0.9,0.8 -1.7,1.4 -2.4,2 -3.7,3 -5.2,3.4 0,0 -0.8,0.4 -2,0.4 z"
       stroke-miterlimit="10" />
    <path
       style="display:inline;fill:#efaf4c;fill-opacity:1;stroke:none"
       d="m 72.984375,42.728516 c -9.413271,6.991253 -12.917951,6.109308 -17.932024,4.716912 1.893384,1.401162 3.87451,2.741854 5.920918,2.838885 4.585593,-0.03675 7.195691,-1.819391 10.942747,-4.721813 1.300799,-1.156807 1.21257,-2.053554 1.068359,-2.833984 z"
       id="path151-8-2-3"
       inkscape:connector-curvature="0"
       sodipodi:nodetypes="ccccc" />
    <path
       style="display:inline;fill:#efaf4c;fill-opacity:1;fill-rule:evenodd;stroke:none;stroke-width:1px;stroke-linecap:butt;stroke-linejoin:miter;stroke-opacity:1"
       d="m 51.892523,44.111558 c 4.094879,0.994945 11.489174,1.49134 19.922527,0.876355 -6.316317,2.423776 -9.609522,3.100243 -12.476212,3.07447 -3.160255,-0.02841 -4.902434,-1.795139 -7.446315,-3.950825 z"
       id="path4501"
       inkscape:connector-curvature="0"
       sodipodi:nodetypes="ccsc" />
    <path
       inkscape:connector-curvature="0"
       style="display:inline;fill:#fcc454;fill-opacity:1;stroke:none"
       id="path151-8-2-0"
       d="m 54.334856,45.472193 c -1.925447,-1.492404 -3.219113,-1.966147 -3.162384,-2.456566 0.08839,-0.504361 0.07407,-0.839907 1.107363,-1.679813 1.118033,-0.77965 1.899098,-1.315337 2.789882,-1.889789 1.29656,-0.847585 2.282221,-1.582553 3.306526,-2.309742 0.413316,-0.209977 1.136618,-0.524942 2.066578,-0.524942 1.015166,-0.06062 2.095557,0.112432 3.251375,0.745926 2.913316,1.594776 4.209641,2.1877 8.114807,3.873559 0.59477,0.26809 0.951362,0.6693 1.136618,1.25986 0.282501,0.958344 -0.929771,1.957481 -3.875522,3.081378 -3.140511,1.154 -7.755644,1.624116 -11.011559,1.623126 -0.852923,-0.04511 -3.049664,-1.291121 -3.723684,-1.722997 z"
       sodipodi:nodetypes="cccccccccccc" />
    <path
       style="display:inline;fill:#fcc454;fill-opacity:1;fill-rule:evenodd;stroke:none;stroke-width:1px;stroke-linecap:butt;stroke-linejoin:miter;stroke-opacity:1"
       d="m 51.385705,42.300494 c 0.763236,1.302731 2.61563,4.940721 8.7049,6.139778 -4.373039,0.706413 -7.338552,-2.491371 -8.742208,-4.488288 -0.329095,-0.633551 -0.274229,-1.22733 0.03731,-1.65149 z"
       id="path4234"
       inkscape:connector-curvature="0"
       sodipodi:nodetypes="cccc" />
    <path
       inkscape:connector-curvature="0"
       style="display:inline;fill:#fcbe51;fill-opacity:1;stroke:none"
       d="m 60.523438,36.611328 c -0.389737,3.840846 -1.271334,7.368427 -2.458985,10.583984 3.255617,4.7e-4 7.867081,-0.469683 11.005859,-1.623046 2.945751,-1.123897 4.157501,-2.123688 3.875,-3.082032 -0.185255,-0.59056 -0.541948,-0.991675 -1.136718,-1.259765 -3.905166,-1.685859 -5.201919,-2.278271 -8.115235,-3.873047 -1.125901,-0.617097 -2.177736,-0.793213 -3.169921,-0.746094 z"
       id="path151-8-2-0-8" />
  </g>
  <g
     inkscape:groupmode="layer"
     id="layer3"
     inkscape:label="Layer 11"
     style="display:inline">
    <path
       sodipodi:nodetypes="ccccscsccc"
       style="display:inline;fill:#4d4d4d;fill-opacity:1;stroke:none"
       inkscape:connector-curvature="0"
       id="path69-1"
       d="m 90.931837,89.163481 c -0.967594,0.550806 -1.449355,0.744617 -2.282751,0.82094 -1.983515,0.172667 -2.932935,-0.183532 -3.332935,-0.283532 -0.4,-0.2 -1.6,-0.6 -2.5,-1.8 -1,-1.3 -1,-2.7 -1,-3.2 0,-0.6 -0.1,-2.3 1.2,-3.7 1.4,-1.6 3.5,-1.7 4.8,-1.7 0.7,0 2.3,0 3.9,0.9 1.1,0.7 1.7,1.5 1.8,1.7 1.52178,2.613631 -0.282808,5.652039 -2.584314,7.262592 z" />
    <path
       sodipodi:nodetypes="ccsc"
       style="display:inline;fill:#333333;fill-opacity:1;stroke:none"
       inkscape:connector-curvature="0"
       id="path69-1-5"
       d="m 89.571181,89.583308 c -2.467053,1.084246 -5.363857,-0.323044 -6.315369,-2.168438 -2.058849,-4.476591 2.085848,-7.099582 5.37429,-6.738453 4.441115,0.487712 7.206036,5.957623 0.941079,8.906891 z" />
    <path
       style="display:inline;fill:#4d4d4d;fill-opacity:1;fill-rule:evenodd;stroke:none;stroke-width:1px;stroke-linecap:butt;stroke-linejoin:miter;stroke-opacity:1"
       d="m 81.081339,64.254445 c 6.606156,11.551776 2.539214,16.958946 2.539214,16.958946 4.120077,-3.532977 7.409439,-8.536267 -2.539214,-16.958946 z"
       id="path4240"
       inkscape:connector-curvature="0"
       sodipodi:nodetypes="ccc" />
    <path
       style="display:inline;fill:#1a1a1a;fill-opacity:1;fill-rule:evenodd;stroke:none;stroke-width:1px;stroke-linecap:butt;stroke-linejoin:miter;stroke-opacity:1"
       d="m 42.062497,68.000004 c -3.374999,7.249999 -1.0625,12.812499 -1.0625,12.812499 0,0 -2.937499,-4.125 -2.437499,-6.4375 0.5,-2.3125 3.499999,-6.374999 3.499999,-6.374999 z"
       id="path4242"
       inkscape:connector-curvature="0"
       sodipodi:nodetypes="ccsc" />
  </g>
</svg>
