<?xml version="1.0" encoding="UTF-8" standalone="no"?>
<!-- Created with Inkscape (http://www.inkscape.org/) -->

<svg
   xmlns:dc="http://purl.org/dc/elements/1.1/"
   xmlns:cc="http://creativecommons.org/ns#"
   xmlns:rdf="http://www.w3.org/1999/02/22-rdf-syntax-ns#"
   xmlns:svg="http://www.w3.org/2000/svg"
   xmlns="http://www.w3.org/2000/svg"
   xmlns:sodipodi="http://sodipodi.sourceforge.net/DTD/sodipodi-0.dtd"
   xmlns:inkscape="http://www.inkscape.org/namespaces/inkscape"
   width="128"
   height="128"
   viewBox="0 0 128 128"
   id="svg2"
   version="1.1"
   inkscape:version="0.91 r13725"
   sodipodi:docname="os_linux.svg"
   inkscape:export-xdpi="90"
   inkscape:export-ydpi="90">
  <defs
     id="defs4">
    <radialGradient
       id="b-1"
       cx="65.467201"
       cy="61.952"
       r="39.291599"
       gradientTransform="matrix(1,0,0,3,0,-123.9039)"
       gradientUnits="userSpaceOnUse">
      <stop
         offset="0.42593944"
         style="stop-color:#303033;stop-opacity:1"
         id="stop6300" />
      <stop
         offset="0.8265"
         style="stop-color:#595859;stop-opacity:1"
         id="stop6302" />
    </radialGradient>
    <radialGradient
       gradientUnits="userSpaceOnUse"
       gradientTransform="matrix(1,0,0,3,0,-123.9039)"
       r="39.291599"
       cy="61.952"
       cx="65.467201"
       id="b-09">
      <stop
         id="stop9-7"
         style="stop-color:#222223"
         offset="0.5153" />
      <stop
         id="stop11-0"
         style="stop-color:#414042"
         offset="0.8265" />
    </radialGradient>
    <radialGradient
       gradientUnits="userSpaceOnUse"
       r="25.5763"
       cy="72.558296"
       cx="62.269001"
       id="w-0">
      <stop
         id="stop16-7-5"
         style="stop-color:#FFFFFF"
         offset="0" />
      <stop
         id="stop18-0-3"
         style="stop-color:#F1F2F2"
         offset="0.4235" />
      <stop
         id="stop20-0-7"
         style="stop-color:#E6E7E8"
         offset="0.6888" />
      <stop
         id="stop22-5-2"
         style="stop-color:#D1D3D4"
         offset="0.8724" />
      <stop
         id="stop24-1-9"
         style="stop-color:#BCBEC0"
         offset="1" />
    </radialGradient>
    <linearGradient
       y2="36.469898"
       x2="55.064201"
       y1="34.530899"
       x1="55.064201"
       gradientUnits="userSpaceOnUse"
       id="alpha2-9">
      <stop
         id="stop111-6"
         style="stop-color:#FFFFFF;stop-opacity:0.4"
         offset="0" />
      <stop
         id="stop113-2"
         style="stop-color:#FFFFFF;stop-opacity:0.1"
         offset="0.4133" />
      <stop
         id="stop115-4"
         style="stop-color:#FFFFFF;stop-opacity:0"
         offset="0.7806" />
    </linearGradient>
    <radialGradient
       gradientUnits="userSpaceOnUse"
       r="2.3979001"
       cy="36.276001"
       cx="55.452"
       id="b-7">
      <stop
         id="stop104-0-0-4"
         style="stop-color:#3D3D3E"
         offset="0" />
      <stop
         id="stop106-3-9-9"
         style="stop-color:#000000"
         offset="1" />
    </radialGradient>
    <linearGradient
       y2="35.888199"
       x2="66.455704"
       y1="33.270599"
       x1="66.455704"
       gradientUnits="userSpaceOnUse"
       id="alpha1-6">
      <stop
         id="stop95-7"
         style="stop-color:#FFFFFF;stop-opacity:0.4"
         offset="0" />
      <stop
         id="stop97-3"
         style="stop-color:#FFFFFF;stop-opacity:0.1"
         offset="0.4133" />
      <stop
         id="stop99-0"
         style="stop-color:#FFFFFF;stop-opacity:0"
         offset="0.7806" />
    </linearGradient>
    <radialGradient
       gradientUnits="userSpaceOnUse"
       r="3.1759"
       cy="35.742802"
       cx="67.2313"
       id="b-6">
      <stop
         id="stop88-6-2"
         style="stop-color:#3D3D3E"
         offset="0" />
      <stop
         id="stop90-3-6"
         style="stop-color:#000000"
         offset="1" />
    </radialGradient>
    <radialGradient
       gradientUnits="userSpaceOnUse"
       r="5.2070999"
       cy="35.866001"
       cx="55.521301"
       id="w-1">
      <stop
         id="stop79-2-9"
         style="stop-color:#FFFFFF"
         offset="0.5612" />
      <stop
         id="stop81-5-9"
         style="stop-color:#F1F2F2"
         offset="0.75" />
      <stop
         id="stop83-2-1"
         style="stop-color:#BCBEC0"
         offset="1" />
    </radialGradient>
    <radialGradient
       gradientUnits="userSpaceOnUse"
       r="6.3966999"
       cy="36.410301"
       cx="67.464699"
       id="w-7">
      <stop
         id="stop72-6-6"
         style="stop-color:#FFFFFF"
         offset="0.6735" />
      <stop
         id="stop74-0-0"
         style="stop-color:#BCBEC0"
         offset="1" />
    </radialGradient>
    <radialGradient
       gradientUnits="userSpaceOnUse"
       r="2.3979001"
       cy="36.276001"
       cx="55.452"
       id="b-0">
      <stop
         id="stop104"
         style="stop-color:#373738;stop-opacity:1"
         offset="0" />
      <stop
         id="stop106"
         style="stop-color:#1a1a1a;stop-opacity:1"
         offset="1" />
    </radialGradient>
    <linearGradient
       y2="43.391998"
       x2="72.872498"
       y1="43.391998"
       x1="51.662498"
       gradientUnits="userSpaceOnUse"
       id="y-5">
      <stop
         id="stop137-7"
         style="stop-color:#FFF33B"
         offset="0" />
      <stop
         id="stop139-2"
         style="stop-color:#FFE029"
         offset="5.948725e-002" />
      <stop
         id="stop141-5"
         style="stop-color:#FFD218"
         offset="0.1303" />
      <stop
         id="stop143-0"
         style="stop-color:#FEC90F"
         offset="0.2032" />
      <stop
         id="stop145-7"
         style="stop-color:#FDC70C"
         offset="0.2809" />
      <stop
         id="stop147-1"
         style="stop-color:#F3903F"
         offset="0.6685" />
      <stop
         id="stop149-9"
         style="stop-color:#ED683C"
         offset="1" />
    </linearGradient>
    <linearGradient
       y2="43.546501"
       x2="73.233902"
       y1="43.546501"
       x1="51.6357"
       gradientUnits="userSpaceOnUse"
       id="y-9">
      <stop
         id="stop120-8"
         style="stop-color:#FDB93E"
         offset="0" />
      <stop
         id="stop122-9"
         style="stop-color:#FDB83C"
         offset="6.566175e-003" />
      <stop
         id="stop124-6"
         style="stop-color:#FAAE29"
         offset="9.430166e-002" />
      <stop
         id="stop126-0"
         style="stop-color:#F8A71E"
         offset="0.1846" />
      <stop
         id="stop128-1"
         style="stop-color:#F8A51B"
         offset="0.2809" />
      <stop
         id="stop130-2"
         style="stop-color:#C87833"
         offset="0.6685" />
      <stop
         id="stop132-2"
         style="stop-color:#B04D2A"
         offset="1" />
    </linearGradient>
    <linearGradient
       y2="96.099297"
       x2="55.089001"
       y1="96.099297"
       x1="23.772301"
       gradientUnits="userSpaceOnUse"
       id="y-55">
      <stop
         id="stop48-0"
         style="stop-color:#ffd93b;stop-opacity:1;"
         offset="0" />
      <stop
         id="stop50-3"
         style="stop-color:#ffcc29;stop-opacity:1;"
         offset="0.05948725" />
      <stop
         id="stop52-5"
         style="stop-color:#ffbf18;stop-opacity:1;"
         offset="0.1303" />
      <stop
         id="stop54-0"
         style="stop-color:#feb20f;stop-opacity:1;"
         offset="0.2032" />
      <stop
         id="stop56-0"
         style="stop-color:#fda40c;stop-opacity:1;"
         offset="0.2809" />
      <stop
         id="stop58-2"
         style="stop-color:#f3923f;stop-opacity:1;"
         offset="0.66850001" />
      <stop
         id="stop60-8"
         style="stop-color:#ed683c;stop-opacity:1;"
         offset="1" />
    </linearGradient>
    <radialGradient
       gradientUnits="userSpaceOnUse"
       r="5.8449998"
       cy="84.420303"
       cx="88.170097"
       id="b-9">
      <stop
         id="stop65-3"
         style="stop-color:#000000"
         offset="0.3673" />
      <stop
         id="stop67-4"
         style="stop-color:#3D3D3E"
         offset="1" />
    </radialGradient>
    <radialGradient
       id="b-1-2"
       cx="65.467201"
       cy="61.952"
       r="39.291599"
       gradientTransform="matrix(1,0,0,3,0,-123.9039)"
       gradientUnits="userSpaceOnUse">
      <stop
         offset="0.42593944"
         style="stop-color:#18181a;stop-opacity:1"
         id="stop6300-6" />
      <stop
         offset="0.8265"
         style="stop-color:#333333;stop-opacity:1"
         id="stop6302-8" />
    </radialGradient>
    <radialGradient
       gradientUnits="userSpaceOnUse"
       r="25.5763"
       cy="72.558296"
       cx="62.269001"
       id="w-0-2">
      <stop
         id="stop16-7-5-2"
         style="stop-color:#FFFFFF"
         offset="0" />
      <stop
         id="stop18-0-3-8"
         style="stop-color:#F1F2F2"
         offset="0.4235" />
      <stop
         id="stop20-0-7-0"
         style="stop-color:#E6E7E8"
         offset="0.6888" />
      <stop
         id="stop22-5-2-8"
         style="stop-color:#D1D3D4"
         offset="0.8724" />
      <stop
         id="stop24-1-9-0"
         style="stop-color:#BCBEC0"
         offset="1" />
    </radialGradient>
  </defs>
  <sodipodi:namedview
     id="base"
     pagecolor="#ffffff"
     bordercolor="#666666"
     borderopacity="1.0"
     inkscape:pageopacity="0.0"
     inkscape:pageshadow="2"
     inkscape:zoom="11.313708"
     inkscape:cx="55.36662"
     inkscape:cy="79.189652"
     inkscape:document-units="px"
     inkscape:current-layer="layer9"
     showgrid="false"
     units="px"
     inkscape:window-width="1366"
     inkscape:window-height="713"
     inkscape:window-x="0"
     inkscape:window-y="27"
     inkscape:window-maximized="1"
     inkscape:snap-nodes="false"
     showguides="false" />
  <metadata
     id="metadata7">
    <rdf:RDF>
      <cc:Work
         rdf:about="">
        <dc:format>image/svg+xml</dc:format>
        <dc:type
           rdf:resource="http://purl.org/dc/dcmitype/StillImage" />
        <dc:title />
        <dc:creator>
          <cc:Agent>
            <dc:title />
          </cc:Agent>
        </dc:creator>
        <dc:publisher>
          <cc:Agent>
            <dc:title />
          </cc:Agent>
        </dc:publisher>
        <cc:license
           rdf:resource="" />
      </cc:Work>
    </rdf:RDF>
  </metadata>
  <g
     inkscape:label="Layer 1"
     inkscape:groupmode="layer"
     id="layer1"
     transform="translate(0,-924.36216)"
     style="display:inline">
    <path
       inkscape:connector-curvature="0"
       style="display:inline;fill:#333333;fill-opacity:1;stroke:none"
       id="path13-0"
       d="m 39.268405,990.16305 c 1.6,-4.6 5.9,-10.6 9,-13.6 0.3,-0.3 0.9,-0.8 1.4,-1.8 1.1,-2 0.7,-4.1 0.5,-5.2 -0.1,-0.9 -0.4,-3.8 -0.8,-9.7 0,-0.3 -0.4,-5.6 0.4,-9.3 0.428861,-1.98798 1.339139,-4.0311 2.5,-5.5 2.753189,-3.0269 7.220422,-4.29588 10.3,-4.5 2.25,-0.0625 4.6375,0.0875 6.9,1.2 3.574077,1.64966 5.967315,3.47805 7.8,7.5 1.52946,3.805 1.299927,7.83393 1.3,10.1 -0.0365,4.17966 0.702218,7.36359 1.8,10 1.6,3.8 2.7,5.6 3.4,6.7 3.978572,5.51089 8.933276,11.83677 11.2,18.6 1.178892,4.31873 2.091605,9.30785 1.546429,13.30005 -0.2,1.5 -0.310715,3.3 -0.710715,5.4 -0.5,2.7 -1.335714,4.1999 -2.235714,6.0999 -0.5,1.1 -1.5,2.6 -3.6,5.4 -3,4.1 -3.6,4.7 -4.1,5 -2.1,1.5 -4.2,2 -5,2.2 -1,0.2 -2.5,0.5 -4.3,0.3 -4.127183,-1.5788 -8.214779,-1.7568 -13.2,-1.6 -3.490537,-0.047 -5.661906,0.2591 -8.9,0.8 -2.6,0.5 -2.7,0.6 -3.4,0.6 -2.4,0.2 -4.3,-1.2 -6.5,-2.7 -3.1,-2.2 -4.7,-4.7 -5.2,-5.4 -0.8,-1.3 -1.4,-2.9 -2.6,-6.1 -1.1,-2.8999 -1.6,-4.6999 -1.7,-5.1999 -0.4,-1.6 -0.6,-2.7 -0.9,-4.4 -0.5,-2.8 -0.678571,-3.3768 -0.4,-4.3 1.556862,-4.39083 3.83329,-9.64625 5.5,-13.90005 z"
       sodipodi:nodetypes="ccccccccccccccccccccccccccccccc" />
  </g>
  <g
     inkscape:groupmode="layer"
     id="layer6"
     inkscape:label="Layer 2"
     style="display:inline">
    <path
       inkscape:connector-curvature="0"
       style="display:inline;fill:#e6e6e6;fill-opacity:1;stroke:none"
       d="m 70.128651,42.987998 c -0.4875,-0.0125 -0.9625,0.06328 -1.3125,0.113282 -2.7,0.4 -5.399609,0.09883 -8.099609,0.298828 -6,0.5 -6.79961,-0.09922 -7.59961,0.800781 -1.4,1.6 0.399219,3.3 -0.800781,7 -0.7,2.1 -1.4,2.199219 -3,5.199219 -1.3,2.4 -1.4,3.5 -2.5,6.5 -2.3,6.2 -3.4,6.00039 -4.5,9.90039 -0.972199,3.370315 -1.062499,6.098797 -0.894252,8.170759 1.024676,0.999702 2.58998,2.248299 5.905473,4.734918 2.203002,1.587597 4.657323,3.2427 5.962393,5.281021 0.61875,1.15 1.202167,1.925802 1.139667,3.313302 -0.0225,0.499494 -0.3125,1.201172 -0.8125,1.701172 -0.6,0.6 -1.401172,0.59961 -1.701172,0.59961 -0.8,0 -1.399218,-0.3 -1.699218,-0.5 -1.491246,-0.820185 -1.542305,-0.642262 -2.546875,-1.119141 2.259635,2.747223 4.741709,5.645991 9.046875,6.917971 6.3,1.9 11.698828,-0.79883 12.798828,-1.29883 2.4,-1.2 4.101172,-2.801172 6.201172,-4.701172 2.2,-2 3.70039,-3.398538 4.90039,-5.398438 2.1,-3.5 1.998438,-6.901562 1.898438,-12.601562 -0.1,-3.30004 -0.199219,-7.698828 -2.199219,-12.798828 -0.3,-0.8 -1.299219,-2.89961 -3.199219,-7.09961 -1.3,-2.9 -1.801172,-4.001562 -2.701172,-6.101562 -1.2,-3 -1.80039,-4.498828 -1.90039,-5.298828 -0.2,-1.5 -0.2,-2.501172 -1,-3.201172 -0.4,-0.3 -0.899219,-0.39961 -1.386719,-0.41211 z"
       id="path26-2-5"
       sodipodi:nodetypes="sccccccccccsssccccccccccccs" />
  </g>
  <g
     inkscape:groupmode="layer"
     id="layer4"
     inkscape:label="Layer 8"
     style="display:inline">
    <path
       inkscape:connector-curvature="0"
       style="display:inline;fill:#dcdce1;fill-opacity:1;stroke:none"
       d="m 70.128906,42.988281 c -0.4875,-0.0125 -0.9625,0.06328 -1.3125,0.113281 -2.7,0.4 -5.399609,0.09883 -8.099609,0.298829 -6,0.5 -6.799609,-0.09922 -7.599609,0.800781 -0.295006,0.337149 -0.442824,0.679162 -0.511719,1.042969 9.306651,3.51745 16.38111,7.432987 24.197265,12.046875 -0.998467,-2.225468 -1.591569,-3.535276 -2.386718,-5.390625 -1.2,-3 -1.800391,-4.498829 -1.900391,-5.298829 -0.2,-1.5 -0.2,-2.501171 -1,-3.201171 -0.4,-0.3 -0.899219,-0.39961 -1.386719,-0.41211 z"
       id="path4265"
       sodipodi:nodetypes="sccccccccs" />
    <path
       inkscape:connector-curvature="0"
       style="display:inline;fill:#dcdce1;fill-opacity:1;stroke:none"
       d="m 47.669922,94.982463 c 2.259635,2.747223 4.741709,5.645987 9.046875,6.917967 6.3,1.9 11.698828,-0.79883 12.798828,-1.29883 2.315096,-1.157544 3.986514,-2.695543 5.986328,-4.507809 -7.570546,1.694041 -14.88958,1.605957 -22.003906,-0.0059 -0.583543,0.494534 -1.300745,0.513671 -1.582031,0.513671 -0.8,0 -1.399219,-0.299999 -1.699219,-0.5 -1.491246,-0.820184 -1.542305,-0.642261 -2.546875,-1.11914 z"
       id="path26-2-5-7" />
  </g>
  <g
     inkscape:groupmode="layer"
     id="layer7"
     inkscape:label="Layer 3"
     style="display:inline">
    <ellipse
       style="display:inline;fill:#d2d2d7;fill-opacity:1;stroke:none"
       id="ellipse76-7"
       ry="7.4000001"
       rx="5"
       cy="36.600876"
       cx="67.199997" />
    <ellipse
       style="display:inline;fill:#d2d2d7;fill-opacity:1;stroke:none"
       id="ellipse85-7"
       ry="6.1999998"
       rx="4.3000002"
       cy="36.100876"
       cx="55.549999" />
    <ellipse
       style="display:inline;fill:#e1e1e1;fill-opacity:1;stroke:none"
       id="ellipse76-7-4"
       ry="6"
       rx="4"
       cy="37.306396"
       cx="67.126312" />
    <ellipse
       style="display:inline;fill:#333333;fill-opacity:1;stroke:none"
       id="ellipse92-3"
       ry="3.2"
       rx="3.0999999"
       cy="36.299999"
       cx="67.016151" />
    <ellipse
       style="display:inline;fill:#4d4d4d;fill-opacity:1;stroke:none"
       id="ellipse101-5"
       ry="1.3"
       rx="1.2"
       cy="35.199963"
       cx="66.316154" />
    <ellipse
       style="display:inline;fill:#e6e6e6;stroke:none"
       id="ellipse85-7-7"
       ry="5"
       rx="3.4411764"
       cy="37.111473"
       cx="55.605885" />
    <ellipse
       style="display:inline;fill:#333333;fill-opacity:1;stroke:none"
       id="ellipse108-8"
       cy="36.799976"
       cx="55.428864"
       rx="2.4000001"
       ry="2.5999999" />
    <ellipse
       style="display:inline;fill:#4d4d4d;fill-opacity:1;stroke:none"
       id="ellipse101-5-4"
       cy="36.099346"
       cx="54.86594"
       rx="1"
       ry="1.1" />
  </g>
  <g
     inkscape:groupmode="layer"
     id="layer9"
     inkscape:label="Layer 5"
     style="display:inline">
    <path
       sodipodi:nodetypes="cscccccccccccccc"
       style="display:inline;fill:#e0a447;fill-opacity:1;stroke:none;stroke-width:0.2;stroke-miterlimit:10;stroke-dasharray:none;stroke-opacity:1"
       inkscape:connector-curvature="0"
       id="path45-9-2-6-6"
       d="m 82.928651,111.61339 c -0.9,0 -1.7,-0.1 -2.6,-0.4 -0.6,-0.2 -2,-0.7 -3.1,-2.1 -1.3,-1.7 -1.3,-3.8 -1.2,-5.4 0.665936,-6.074871 1.117731,-11.270217 1.023223,-14.971923 -0.162877,-2.477713 -0.02918,-4.902196 2.580806,-5.590165 1.826013,-0.41828 2.866328,0.831764 4.295083,1.346859 0.97805,0.352505 2.291878,0.220083 3.587374,-0.763801 2.438367,-1.473499 3.974679,-1.94771 6.013514,-0.920971 1.787184,0.899774 2.32957,2.353844 2.5,4 0.341968,1.767719 0.693218,2.33036 1.806282,3.353204 0.947556,0.782888 1.870457,1.395354 3.152127,1.8513 1.50213,0.344123 2.31197,1.162 2.3461,3.127729 -0.0217,1.574026 -0.60401,2.532524 -1.9487,3.662437 -3.831818,2.831391 -7.888041,6.425581 -11.255809,9.005331 -2.261735,1.81803 -4.691171,3.76981 -7.2,3.8 z"
       stroke-miterlimit="10" />
    <path
       sodipodi:nodetypes="ccccccccccccccccccc"
       style="display:inline;fill:#e0a447;fill-opacity:1;stroke:none;stroke-width:0.2;stroke-miterlimit:10;stroke-dasharray:none;stroke-opacity:1"
       inkscape:connector-curvature="0"
       id="path62-3-0-9-6"
       d="m 43.764322,109.79911 c -5.587346,-2.00813 -10.613476,-2.5648 -16.066854,-4.13371 -2.1,-0.6 -2.8,-1 -3.3,-1.7 -0.2,-0.2 -0.7,-1.1 -0.6,-2.2 0.920438,-2.230511 1.431025,-3.480485 1.841942,-4.830336 0.232582,-0.990641 0.120974,-2.697748 -0.588388,-4.197748 -0.828068,-2.073069 -0.338514,-3.515753 0.316465,-4.500349 0.780575,-1.087129 2.232445,-1.092544 3.313864,-1.053203 1.9234,0.09329 3.298615,-0.511373 3.816117,-1.123225 0.560686,-0.740294 1.561952,-2.21646 2.7,-3.495145 1.009023,-1.175549 1.88915,-1.578353 3.1,-1.8 l 0.6,0 c 1.3,0.2 2.1,1.2 3,2.2 3.033022,3.328399 4.860227,7.173052 6.8,10.7 1.484552,2.420124 3.275055,4.007077 4.8,6.400006 0.6,0.9 1.1,1.8 1.4,3 0.442416,2.01297 -0.03174,3.65936 -0.960303,4.9397 -1.389128,1.60403 -3.706171,2.28857 -5.610526,2.42642 -1.876623,0.10886 -3.349377,-0.22771 -4.562317,-0.63241 z"
       stroke-miterlimit="10" />
    <path
       style="fill:none;fill-rule:evenodd;stroke:none;stroke-width:1px;stroke-linecap:butt;stroke-linejoin:miter;stroke-opacity:1"
       d="M 59.801538,34.312178 62.074382,42.709071 59.043924,53 66.620068,45.613259 Z"
       id="path4232"
       inkscape:connector-curvature="0" />
    <path
       sodipodi:nodetypes="ccccccccccccccccccc"
       style="display:inline;fill:#fcbe51;fill-opacity:1;stroke:none;stroke-width:0.2;stroke-miterlimit:10;stroke-dasharray:none;stroke-opacity:1"
       inkscape:connector-curvature="0"
       id="path62-3-0-9"
       d="m 43.479931,110.04348 c -5.587346,-2.00813 -10.613476,-2.5648 -16.066854,-4.13371 -2.1,-0.6 -2.8,-1 -3.3,-1.7 -0.2,-0.2 -0.7,-1.1 -0.6,-2.2 0.699467,-2.672452 2.447491,-4.010814 2.858408,-5.360665 0.232582,-0.990641 -0.895492,-2.167418 -1.604854,-3.667418 -0.828068,-2.073069 -0.338514,-3.515753 0.316465,-4.500349 0.780575,-1.087129 2.232445,-1.092544 3.313864,-1.053203 1.9234,0.09329 3.475392,0.195734 3.992894,-0.416118 0.560686,-0.740294 1.385175,-2.923567 2.523223,-4.202252 1.009023,-1.175549 1.88915,-1.578353 3.1,-1.8 l 0.6,0 c 1.3,0.2 2.1,1.2 3,2.2 3.033022,3.328399 4.860227,7.173052 6.8,10.7 1.484552,2.420124 3.275055,4.007077 4.8,6.400005 0.6,0.9 1.1,1.8 1.4,3 0.442416,2.01297 -0.03174,3.65936 -0.960303,4.9397 -1.389128,1.60403 -3.706171,2.28857 -5.610526,2.42642 -1.876623,0.10886 -3.349377,-0.22771 -4.562317,-0.63241 z"
       stroke-miterlimit="10" />
    <path
       sodipodi:nodetypes="cscccccccccccccc"
       style="display:inline;fill:#fcbe51;fill-opacity:1;stroke:none;stroke-width:0.2;stroke-miterlimit:10;stroke-dasharray:none;stroke-opacity:1"
       inkscape:connector-curvature="0"
       id="path45-9-2-6"
       d="m 82.616151,111.80089 c -0.9,0 -1.7,-0.1 -2.6,-0.4 -0.6,-0.2 -2,-0.7 -3.1,-2.1 -1.3,-1.7 -1.3,-3.8 -1.2,-5.4 0.665936,-6.074871 1.117731,-11.270217 1.023223,-14.971923 -0.162877,-2.477713 -0.02918,-4.902196 2.580806,-5.590165 1.826013,-0.41828 2.866328,0.831764 4.295083,1.346859 0.97805,0.352505 2.291878,0.220083 3.587374,-0.763801 2.438367,-1.473499 3.974679,-1.94771 6.013514,-0.920971 1.787184,0.899774 2.32957,2.353844 2.5,4 0.279468,2.205219 0.568218,2.83036 1.681282,3.853204 1.018718,0.83033 2.379378,1.1513 3.277127,1.3513 1.50213,0.344123 2.31197,1.162 2.3461,3.127729 -0.0217,1.574026 -0.60401,2.532524 -1.9487,3.662437 -3.831818,2.831391 -7.888041,6.425581 -11.255809,9.005331 -2.261735,1.81803 -4.691171,3.76981 -7.2,3.8 z"
       stroke-miterlimit="10" />
    <path
       style="fill:#fcb24c;fill-opacity:1;fill-rule:evenodd;stroke:none;stroke-width:1px;stroke-linecap:butt;stroke-linejoin:miter;stroke-opacity:1"
       d="m 76.036076,107.50495 c 1.497615,4.35267 7.166804,5.33274 10.372306,2.92079 -4.771872,1.4131 -7.890207,-0.19048 -10.372306,-2.92079 z"
       id="path4316"
       inkscape:connector-curvature="0"
       sodipodi:nodetypes="ccc" />
    <path
       style="fill:#fcb24c;fill-opacity:1;fill-rule:evenodd;stroke:none;stroke-width:1px;stroke-linecap:butt;stroke-linejoin:miter;stroke-opacity:1"
       d="m 54.336737,107.05196 c -1.453671,3.87048 -8.161886,4.17067 -10.893864,2.85052 4.095417,0.25444 8.255082,-0.81531 10.893864,-2.85052 z"
       id="path4318"
       inkscape:connector-curvature="0"
       sodipodi:nodetypes="ccc" />
    <path
       style="display:inline;fill:#ceced3;fill-opacity:1;stroke:none"
       d="m 52.353913,44.98242 c 2.63785,2.68667 5.198675,5.99222 9.480469,6.01953 5.90768,-0.0266 8.241924,-3.77326 10.505667,-5.93631 -9.623082,1.89495 -12.476494,1.60856 -19.986136,-0.0832 z"
       id="path151-8-2-2-3"
       inkscape:connector-curvature="0"
       sodipodi:nodetypes="cccc" />
    <path
       inkscape:connector-curvature="0"
       style="display:inline;fill:#e0a447;fill-opacity:1;stroke:none"
       id="path151-8-2-0"
       d="m 60.951099,50.1745 c -3.070847,0.0211 -6.260934,-3.12594 -8.520686,-4.96076 -0.814028,-0.74917 -1.383368,-1.4411 -1.280039,-2.17602 0,-0.31497 0.489027,-1.01602 1.319193,-1.5278 1.289908,-0.82653 1.829902,-1.19034 2.798811,-1.76479 1.42156,-0.84759 2.018828,-1.15398 3.246258,-1.92805 0.538316,-0.31935 1.074118,-0.34191 2.004078,-0.34191 1.124541,0.002 1.85895,0.0388 2.952268,0.51602 3.022691,1.43853 4.321248,1.6877 8.226414,3.37356 0.516645,0.31496 1.062969,0.53537 1.248225,1.12593 0.157501,0.83334 0.402066,1.7983 -1.029439,3.07134 -3.747056,2.90243 -6.37949,4.57572 -10.965083,4.61248 z"
       sodipodi:nodetypes="cccccccccccc" />
    <path
       style="display:inline;fill:#efaf4c;fill-opacity:1;fill-rule:evenodd;stroke:none;stroke-width:1px;stroke-linecap:butt;stroke-linejoin:miter;stroke-opacity:1"
       d="m 52.209822,44.0268 c 0,0 1.953823,0.89478 4.084821,1.31696 2.366071,0.46875 4.732142,0.40179 8.571428,0 1.907151,-0.19959 7.901787,-2.0759 7.901787,-2.0759 0,0 -1.185611,1.44905 -8.41518,2.90179 -2.184717,0.43901 -5.380175,0.67104 -6.741071,0.33482 -3.794643,-0.9375 -5.401785,-2.47768 -5.401785,-2.47767 z"
       id="path4921"
       inkscape:connector-curvature="0"
       sodipodi:nodetypes="csscssc" />
    <path
       style="display:inline;fill:#efaf4c;fill-opacity:1;fill-rule:evenodd;stroke:none;stroke-width:1px;stroke-linecap:butt;stroke-linejoin:miter;stroke-opacity:1"
       d="m 52.748903,44.86761 c 2.3377,1.15243 4.537651,1.91649 6.865881,2.03609 2.32823,0.1196 4.501589,-0.14715 6.329237,-0.56821 1.827648,-0.42106 3.193737,-0.92064 4.956061,-1.48366 -2.089172,1.01463 -4.290712,1.68842 -6.29767,2.22549 -2.006959,0.53706 -3.900175,0.82927 -5.878979,0.5132 -1.978804,-0.31607 -3.815221,-1.29176 -5.97453,-2.72291 z"
       id="path4938"
       inkscape:connector-curvature="0"
       sodipodi:nodetypes="czzczzc" />
    <path
       inkscape:connector-curvature="0"
       style="display:inline;fill:#fcc454;fill-opacity:1;stroke:none"
       id="path151-8-2-0-2"
       d="M 54.207635,44.86641 C 52.254504,44.24506 51.053243,43.49042 51.109972,43 c 0.08839,-0.50436 0.13657,-1.04526 1.169863,-1.66419 1.272713,-0.75755 1.749871,-0.92781 2.909837,-1.64987 1.159966,-0.72207 2.123184,-1.27594 2.994011,-1.7731 0.870827,-0.49717 1.323171,-0.75796 2.17075,-0.76486 0.847579,-0.007 1.669369,0.0404 3.273472,0.76171 1.604103,0.72132 4.121252,1.81205 8.181098,3.32113 0.59477,0.26809 0.951362,0.6693 1.136618,1.25986 0.282501,0.95834 -0.510358,1.075 -4.642908,2.17827 -4.13255,1.10327 -8.568921,1.3173 -9.637225,1.29421 -0.985506,-9.2e-4 -2.504722,-0.4754 -4.457853,-1.09675 z"
       sodipodi:nodetypes="zcczzzzcczcz" />
    <path
       style="display:inline;fill:#fcc454;fill-opacity:1;fill-rule:evenodd;stroke:none;stroke-width:1px;stroke-linecap:butt;stroke-linejoin:miter;stroke-opacity:1"
       d="m 51.322079,42.32514 c -0.254599,1.14915 3.19155,3.89183 8.52833,4.59238 -3.439258,-0.0111 -7.767247,-2.25684 -8.314195,-2.77343 -0.546947,-0.51658 -0.565387,-1.11547 -0.214135,-1.81895 z"
       id="path4234-1"
       inkscape:connector-curvature="0"
       sodipodi:nodetypes="cczc" />
    <path
       inkscape:connector-curvature="0"
       style="display:inline;fill:#fcbe51;fill-opacity:1;stroke:none"
       d="m 60.732422,37.15626 c -0.584499,3.80985 -1.340012,6.71894 -2.009766,8.80469 1.125585,0.0179 5.490095,-0.20106 9.580078,-1.29297 4.13255,-1.10327 4.925079,-1.2194 4.642578,-2.17774 -0.185255,-0.59056 -0.541948,-0.99167 -1.136718,-1.25976 -4.059846,-1.50908 -6.577538,-2.599 -8.181641,-3.32031 -1.368351,-0.61531 -2.163096,-0.73479 -2.894531,-0.75391 z"
       id="path151-8-2-0-2-3" />
  </g>
  <g
     inkscape:groupmode="layer"
     id="layer3"
     inkscape:label="Layer 11"
     style="display:inline">
    <path
       sodipodi:nodetypes="cccscccc"
       style="display:inline;fill:#4d4d4d;fill-opacity:1;stroke:none"
       inkscape:connector-curvature="0"
       id="path69-1"
       d="m 90.744337,88.788481 c -1.798043,1.029616 -3.371913,1.423627 -5.428186,0.912408 -0.4,-0.2 -1.6,-0.6 -2.5,-1.8 -1,-1.3 -1,-2.7 -1,-3.2 0,-0.6 -0.1,-2.3 1.2,-3.7 1.4,-1.6 3.5,-1.7 4.8,-1.7 2.529979,0.211004 3.675154,0.578939 5.325,2.6 1.52178,2.613631 -0.09531,5.277039 -2.396814,6.887592 z" />
    <path
       sodipodi:nodetypes="ccsc"
       style="display:inline;fill:#333333;fill-opacity:1;stroke:none"
       inkscape:connector-curvature="0"
       id="path69-1-5"
       d="m 89.258681,88.895808 c -2.467053,1.084246 -5.051357,0.364456 -6.002869,-1.480938 -2.058849,-4.476591 1.260612,-7.225663 4.49929,-6.550953 4.441115,0.925212 7.768536,5.082623 1.503579,8.031891 z" />
    <path
       style="display:inline;fill:#4d4d4d;fill-opacity:1;fill-rule:evenodd;stroke:none;stroke-width:1px;stroke-linecap:butt;stroke-linejoin:miter;stroke-opacity:1"
       d="m 81.081339,64.254445 c 2.456077,5.348456 4.452817,11.180059 2.539214,16.958946 3.501359,-5.610103 3.210992,-10.171451 -2.539214,-16.958946 z"
       id="path4240"
       inkscape:connector-curvature="0"
       sodipodi:nodetypes="ccc" />
    <path
       style="display:inline;fill:#1a1a1a;fill-opacity:1;fill-rule:evenodd;stroke:none;stroke-width:1px;stroke-linecap:butt;stroke-linejoin:miter;stroke-opacity:1"
       d="m 42.062497,68.000004 c -3.374999,7.249999 -1.0625,12.812499 -1.0625,12.812499 0,0 -2.937499,-4.125 -2.437499,-6.4375 0.5,-2.3125 3.499999,-6.374999 3.499999,-6.374999 z"
       id="path4242"
       inkscape:connector-curvature="0"
       sodipodi:nodetypes="ccsc" />
  </g>
</svg>
