<?xml version="1.0" encoding="UTF-8" standalone="no"?>
<!-- Created with Inkscape (http://www.inkscape.org/) -->

<svg
   xmlns:dc="http://purl.org/dc/elements/1.1/"
   xmlns:cc="http://creativecommons.org/ns#"
   xmlns:rdf="http://www.w3.org/1999/02/22-rdf-syntax-ns#"
   xmlns:svg="http://www.w3.org/2000/svg"
   xmlns="http://www.w3.org/2000/svg"
   xmlns:sodipodi="http://sodipodi.sourceforge.net/DTD/sodipodi-0.dtd"
   xmlns:inkscape="http://www.inkscape.org/namespaces/inkscape"
   width="128"
   height="128"
   viewBox="0 0 128 128"
   id="svg2"
   version="1.1"
   inkscape:version="0.91 r13725"
   sodipodi:docname="os_legacy.svg"
   inkscape:export-xdpi="90"
   inkscape:export-ydpi="90">
  <defs
     id="defs4" />
  <sodipodi:namedview
     id="base"
     pagecolor="#ffffff"
     bordercolor="#666666"
     borderopacity="1.0"
     inkscape:pageopacity="0.0"
     inkscape:pageshadow="2"
     inkscape:zoom="2.8"
     inkscape:cx="129.39286"
     inkscape:cy="63.590227"
     inkscape:document-units="px"
     inkscape:current-layer="layer1"
     showgrid="false"
     units="px"
     inkscape:window-width="1366"
     inkscape:window-height="713"
     inkscape:window-x="0"
     inkscape:window-y="27"
     inkscape:window-maximized="1" />
  <metadata
     id="metadata7">
    <rdf:RDF>
      <cc:Work
         rdf:about="">
        <dc:format>image/svg+xml</dc:format>
        <dc:type
           rdf:resource="http://purl.org/dc/dcmitype/StillImage" />
        <dc:title />
        <dc:creator>
          <cc:Agent>
            <dc:title />
          </cc:Agent>
        </dc:creator>
        <dc:publisher>
          <cc:Agent>
            <dc:title />
          </cc:Agent>
        </dc:publisher>
        <cc:license
           rdf:resource="" />
      </cc:Work>
    </rdf:RDF>
  </metadata>
  <g
     inkscape:label="Layer 1"
     inkscape:groupmode="layer"
     id="layer1"
     transform="translate(0,-924.36216)">
    <rect
       style="fill:#33333d;fill-opacity:1;stroke:none;stroke-width:5;stroke-linecap:round;stroke-linejoin:round;stroke-miterlimit:4;stroke-dasharray:none;stroke-opacity:1"
       id="rect4137"
       width="32"
       height="32"
       x="710.13245"
       y="619.62274"
       rx="2"
       ry="2"
       transform="matrix(0.70710678,0.70710678,-0.70710678,0.70710678,0,0)" />
    <rect
       style="fill:#33333d;fill-opacity:1;stroke:none;stroke-width:5;stroke-linecap:round;stroke-linejoin:round;stroke-miterlimit:4;stroke-dasharray:none;stroke-opacity:1"
       id="rect4137-2"
       width="32"
       height="32"
       x="746.13245"
       y="619.62274"
       rx="2"
       ry="2"
       transform="matrix(0.70710678,0.70710678,-0.70710678,0.70710678,0,0)" />
    <rect
       style="fill:#33333d;fill-opacity:1;stroke:none;stroke-width:5;stroke-linecap:round;stroke-linejoin:round;stroke-miterlimit:4;stroke-dasharray:none;stroke-opacity:1"
       id="rect4137-0"
       width="32"
       height="32"
       x="710.13245"
       y="655.62274"
       rx="2"
       ry="2"
       transform="matrix(0.70710678,0.70710678,-0.70710678,0.70710678,0,0)" />
    <rect
       style="fill:#33333d;fill-opacity:1;stroke:none;stroke-width:5;stroke-linecap:round;stroke-linejoin:round;stroke-miterlimit:4;stroke-dasharray:none;stroke-opacity:1"
       id="rect4137-2-4"
       width="32"
       height="32"
       x="746.13245"
       y="655.62274"
       rx="2"
       ry="2"
       transform="matrix(0.70710678,0.70710678,-0.70710678,0.70710678,0,0)" />
    <path
       inkscape:connector-curvature="0"
       style="display:inline;fill:#31313b;fill-opacity:1;stroke:none;stroke-width:5;stroke-linecap:round;stroke-linejoin:round;stroke-miterlimit:4;stroke-dasharray:none;stroke-opacity:1"
       d="m 23.54492,980.73521 -6.214844,6.21289 c -0.783474,0.78347 -0.783474,2.04465 0,2.82813 l 19.800783,19.79877 c 0.783475,0.7835 2.044651,0.7835 2.828125,0 l 6.212891,-6.2128 -22.626955,-22.62699 z m 80.91016,0 -22.626955,22.62699 6.21289,6.2128 c 0.783475,0.7835 2.044651,0.7835 2.828125,0 l 19.80078,-19.79877 c 0.78348,-0.78348 0.78348,-2.04465 0,-2.82813 l -6.21484,-6.21289 z M 49,1006.1903 l -6.212891,6.2129 c -0.783474,0.7834 -0.783474,2.0446 0,2.8281 l 19.798828,19.8008 c 0.783474,0.7835 2.044652,0.7835 2.828125,0 l 19.798828,-19.8008 c 0.783475,-0.7835 0.783475,-2.0447 0,-2.8281 L 79,1006.1903 l -13.585938,13.584 c -0.783474,0.7834 -2.04465,0.7834 -2.828125,0 L 49,1006.1903 Z"
       id="rect4137-1" />
  </g>
</svg>
