<?xml version="1.0" encoding="UTF-8" standalone="no"?>
<!-- Created with Inkscape (http://www.inkscape.org/) -->

<svg
   xmlns:dc="http://purl.org/dc/elements/1.1/"
   xmlns:cc="http://creativecommons.org/ns#"
   xmlns:rdf="http://www.w3.org/1999/02/22-rdf-syntax-ns#"
   xmlns:svg="http://www.w3.org/2000/svg"
   xmlns="http://www.w3.org/2000/svg"
   xmlns:sodipodi="http://sodipodi.sourceforge.net/DTD/sodipodi-0.dtd"
   xmlns:inkscape="http://www.inkscape.org/namespaces/inkscape"
   width="128"
   height="128"
   viewBox="0 0 128 128"
   id="svg2"
   version="1.1"
   inkscape:version="0.91 r13725"
   sodipodi:docname="os_unknown.svg"
   inkscape:export-xdpi="90"
   inkscape:export-ydpi="90">
  <defs
     id="defs4" />
  <sodipodi:namedview
     id="base"
     pagecolor="#ffffff"
     bordercolor="#666666"
     borderopacity="1.0"
     inkscape:pageopacity="0.0"
     inkscape:pageshadow="2"
     inkscape:zoom="2.8"
     inkscape:cx="-53.503078"
     inkscape:cy="59.304513"
     inkscape:document-units="px"
     inkscape:current-layer="layer3"
     showgrid="false"
     units="px"
     inkscape:window-width="1366"
     inkscape:window-height="713"
     inkscape:window-x="0"
     inkscape:window-y="27"
     inkscape:window-maximized="1" />
  <metadata
     id="metadata7">
    <rdf:RDF>
      <cc:Work
         rdf:about="">
        <dc:format>image/svg+xml</dc:format>
        <dc:type
           rdf:resource="http://purl.org/dc/dcmitype/StillImage" />
        <dc:title />
        <dc:creator>
          <cc:Agent>
            <dc:title />
          </cc:Agent>
        </dc:creator>
        <dc:publisher>
          <cc:Agent>
            <dc:title />
          </cc:Agent>
        </dc:publisher>
        <cc:license
           rdf:resource="" />
      </cc:Work>
    </rdf:RDF>
  </metadata>
  <g
     inkscape:label="Layer 1"
     inkscape:groupmode="layer"
     id="layer1"
     transform="translate(0,-924.36216)"
     style="display:inline">
    <rect
       style="fill:#b2b2b7;fill-opacity:1;stroke:none;stroke-width:5;stroke-linecap:round;stroke-linejoin:round;stroke-miterlimit:4;stroke-dasharray:none;stroke-opacity:1"
       id="rect4137"
       width="32"
       height="32"
       x="710.13245"
       y="619.62274"
       rx="2"
       ry="2"
       transform="matrix(0.70710678,0.70710678,-0.70710678,0.70710678,0,0)" />
    <rect
       style="fill:#b2b2b7;fill-opacity:1;stroke:none;stroke-width:5;stroke-linecap:round;stroke-linejoin:round;stroke-miterlimit:4;stroke-dasharray:none;stroke-opacity:1"
       id="rect4137-2"
       width="32"
       height="32"
       x="746.13245"
       y="619.62274"
       rx="2"
       ry="2"
       transform="matrix(0.70710678,0.70710678,-0.70710678,0.70710678,0,0)" />
    <rect
       style="fill:#b2b2b7;fill-opacity:1;stroke:none;stroke-width:5;stroke-linecap:round;stroke-linejoin:round;stroke-miterlimit:4;stroke-dasharray:none;stroke-opacity:1"
       id="rect4137-0"
       width="32"
       height="32"
       x="710.13245"
       y="655.62274"
       rx="2"
       ry="2"
       transform="matrix(0.70710678,0.70710678,-0.70710678,0.70710678,0,0)" />
    <rect
       style="fill:#b2b2b7;fill-opacity:1;stroke:none;stroke-width:5;stroke-linecap:round;stroke-linejoin:round;stroke-miterlimit:4;stroke-dasharray:none;stroke-opacity:1"
       id="rect4137-2-4"
       width="32"
       height="32"
       x="746.13245"
       y="655.62274"
       rx="2"
       ry="2"
       transform="matrix(0.70710678,0.70710678,-0.70710678,0.70710678,0,0)" />
  </g>
  <g
     inkscape:groupmode="layer"
     id="layer3"
     inkscape:label="Layer 2"
     style="display:inline">
    <path
       style="fill:#afafb4;fill-opacity:1;stroke:none;stroke-width:5;stroke-linecap:round;stroke-linejoin:round;stroke-miterlimit:4;stroke-dasharray:none;stroke-opacity:1"
       d="M 23.544922 56.373047 L 17.330078 62.585938 C 16.546604 63.369411 16.546604 64.630589 17.330078 65.414062 L 37.130859 85.212891 C 37.914334 85.996365 39.17551 85.996365 39.958984 85.212891 L 46.171875 79 L 23.544922 56.373047 z M 104.45508 56.373047 L 81.828125 79 L 88.041016 85.212891 C 88.82449 85.996365 90.085666 85.996365 90.869141 85.212891 L 110.66992 65.414062 C 111.4534 64.630589 111.4534 63.369412 110.66992 62.585938 L 104.45508 56.373047 z M 49 81.828125 L 42.787109 88.041016 C 42.003635 88.82449 42.003635 90.085666 42.787109 90.869141 L 62.585938 110.66992 C 63.369411 111.4534 64.630589 111.4534 65.414062 110.66992 L 85.212891 90.869141 C 85.996365 90.085666 85.996365 88.82449 85.212891 88.041016 L 79 81.828125 L 65.414062 95.412109 C 64.630588 96.195584 63.369412 96.195584 62.585938 95.412109 L 49 81.828125 z "
       id="rect4137-1" />
  </g>
</svg>
