<?xml version="1.0" encoding="UTF-8" standalone="no"?>
<!-- Created with Inkscape (http://www.inkscape.org/) -->

<svg
   xmlns:dc="http://purl.org/dc/elements/1.1/"
   xmlns:cc="http://creativecommons.org/ns#"
   xmlns:rdf="http://www.w3.org/1999/02/22-rdf-syntax-ns#"
   xmlns:svg="http://www.w3.org/2000/svg"
   xmlns="http://www.w3.org/2000/svg"
   xmlns:sodipodi="http://sodipodi.sourceforge.net/DTD/sodipodi-0.dtd"
   xmlns:inkscape="http://www.inkscape.org/namespaces/inkscape"
   width="128"
   height="128"
   viewBox="0 0 128 128"
   id="svg2"
   version="1.1"
   inkscape:version="0.91 r13725"
   sodipodi:docname="os_unknown_alt2.svg">
  <defs
     id="defs4" />
  <sodipodi:namedview
     id="base"
     pagecolor="#ffffff"
     bordercolor="#666666"
     borderopacity="1.0"
     inkscape:pageopacity="0.0"
     inkscape:pageshadow="2"
     inkscape:zoom="4.9541084"
     inkscape:cx="28.935556"
     inkscape:cy="55.911407"
     inkscape:document-units="px"
     inkscape:current-layer="layer3"
     showgrid="true"
     units="px"
     inkscape:snap-bbox="true"
     inkscape:bbox-nodes="false"
     inkscape:window-width="1366"
     inkscape:window-height="713"
     inkscape:window-x="0"
     inkscape:window-y="27"
     inkscape:window-maximized="1"
     inkscape:snap-nodes="true"
     inkscape:snap-bbox-edge-midpoints="false"
     inkscape:bbox-paths="true">
    <inkscape:grid
       type="xygrid"
       id="grid4231" />
  </sodipodi:namedview>
  <metadata
     id="metadata7">
    <rdf:RDF>
      <cc:Work
         rdf:about="">
        <dc:format>image/svg+xml</dc:format>
        <dc:type
           rdf:resource="http://purl.org/dc/dcmitype/StillImage" />
        <dc:title />
      </cc:Work>
    </rdf:RDF>
  </metadata>
  <g
     inkscape:groupmode="layer"
     id="layer2"
     inkscape:label="Layer 2"
     style="display:inline">
    <rect
       style="fill:#373e48;fill-opacity:1;stroke:none;stroke-width:6;stroke-linecap:round;stroke-linejoin:round;stroke-miterlimit:4;stroke-dasharray:none;stroke-opacity:1"
       id="rect4319"
       width="68"
       height="68"
       x="-34"
       y="-124.50967"
       rx="3.1875"
       ry="3.1875"
       transform="matrix(-0.70710678,0.70710678,-0.70710678,-0.70710678,0,0)" />
  </g>
  <g
     inkscape:groupmode="layer"
     id="layer3"
     inkscape:label="Layer 3"
     style="display:inline">
    <path
       style="display:inline;fill:#323841;fill-opacity:1;stroke:none;stroke-width:4;stroke-linecap:round;stroke-linejoin:round;stroke-miterlimit:4;stroke-dasharray:none;stroke-opacity:1"
       d="m 64,40.773925 c -0.814786,0 -1.629575,0.311215 -2.253906,0.935546 l -9.015625,9.015625 -6.009766,-6.009765 a 2.1254633,2.1254633 0 1 0 -3.005859,3.005859 l 6.009765,6.009766 -9.015625,9.015625 c -1.248662,1.248662 -1.248662,3.25915 0,4.507812 l 21.03711,21.03711 c 1.248662,1.248662 3.25915,1.248662 4.507812,0 l 9.015625,-9.015625 6.009766,6.009765 a 2.1254633,2.1254633 0 1 0 3.005859,-3.005859 l -6.009765,-6.009766 9.015625,-9.015625 c 1.248662,-1.248662 1.248662,-3.25915 0,-4.507812 L 66.253906,41.709471 C 65.629575,41.08514 64.814786,40.773925 64,40.773925 Z"
       id="rect4229-1"
       inkscape:connector-curvature="0" />
  </g>
  <g
     inkscape:label="Layer 1"
     inkscape:groupmode="layer"
     id="layer1"
     transform="translate(0,-924.36216)"
     style="display:inline">
    <rect
       style="display:inline;fill:#333333;fill-opacity:1;stroke:none;stroke-width:4;stroke-linecap:round;stroke-linejoin:round;stroke-miterlimit:4;stroke-dasharray:none;stroke-opacity:1"
       id="rect4229"
       width="36.125"
       height="36.125"
       x="635.56024"
       y="-762.19495"
       rx="3.1875"
       ry="3.1875"
       transform="matrix(-0.70710678,0.70710678,-0.70710678,-0.70710678,0,0)" />
    <path
       style="color:#000000;font-style:normal;font-variant:normal;font-weight:normal;font-stretch:normal;font-size:medium;line-height:normal;font-family:sans-serif;text-indent:0;text-align:start;text-decoration:none;text-decoration-line:none;text-decoration-style:solid;text-decoration-color:#000000;letter-spacing:normal;word-spacing:normal;text-transform:none;direction:ltr;block-progression:tb;writing-mode:lr-tb;baseline-shift:baseline;text-anchor:start;white-space:normal;clip-rule:nonzero;display:inline;overflow:visible;visibility:visible;opacity:1;isolation:auto;mix-blend-mode:normal;color-interpolation:sRGB;color-interpolation-filters:linearRGB;solid-color:#000000;solid-opacity:1;fill:#94979c;fill-opacity:1;fill-rule:evenodd;stroke:none;stroke-width:8;stroke-linecap:round;stroke-linejoin:miter;stroke-miterlimit:4;stroke-dasharray:none;stroke-dashoffset:0;stroke-opacity:1;color-rendering:auto;image-rendering:auto;shape-rendering:auto;text-rendering:auto;enable-background:accumulate"
       d="m 73.391272,978.97091 a 5.3125,5.3125 0 0 0 -7.51301,0 5.3125,5.3125 0 0 0 0,7.51301 5.3125,5.3125 0 0 0 1.630992,1.11155 l 7.05e-4,7.28193 13.769938,13.7699 a 2.1252125,2.1252125 0 1 0 3.005204,-3.0052 l -12.525596,-12.52557 5e-6,-5.52617 a 5.3125,5.3125 0 0 0 1.631762,-1.10644 5.3125,5.3125 0 0 0 0,-7.51301 z M 46.720053,968.07708 a 2.1252125,2.1252125 0 1 0 -3.005204,3.00521 l 12.525595,12.52559 -7.38e-4,5.52544 a 5.3125,5.3125 0 0 0 -1.630958,1.10711 5.3125,5.3125 0 0 0 0,7.513 5.3125,5.3125 0 0 0 7.51301,0 5.3125,5.3125 0 0 0 0,-7.513 5.3125,5.3125 0 0 0 -1.631726,-1.11229 l -4.1e-5,-7.28112 -13.769938,-13.76994 z"
       id="path4261"
       inkscape:connector-curvature="0" />
  </g>
</svg>
