<?xml version="1.0" encoding="UTF-8" standalone="no"?>
<!-- Created with Inkscape (http://www.inkscape.org/) -->

<svg
   xmlns:dc="http://purl.org/dc/elements/1.1/"
   xmlns:cc="http://creativecommons.org/ns#"
   xmlns:rdf="http://www.w3.org/1999/02/22-rdf-syntax-ns#"
   xmlns:svg="http://www.w3.org/2000/svg"
   xmlns="http://www.w3.org/2000/svg"
   xmlns:sodipodi="http://sodipodi.sourceforge.net/DTD/sodipodi-0.dtd"
   xmlns:inkscape="http://www.inkscape.org/namespaces/inkscape"
   width="128"
   height="128"
   viewBox="0 0 128 128"
   id="svg2"
   version="1.1"
   inkscape:version="0.91 r13725"
   sodipodi:docname="os_unknown.svg">
  <defs
     id="defs4" />
  <sodipodi:namedview
     id="base"
     pagecolor="#ffffff"
     bordercolor="#666666"
     borderopacity="1.0"
     inkscape:pageopacity="0.0"
     inkscape:pageshadow="2"
     inkscape:zoom="2.8"
     inkscape:cx="4.0357143"
     inkscape:cy="59.929884"
     inkscape:document-units="px"
     inkscape:current-layer="layer2"
     showgrid="true"
     units="px"
     inkscape:snap-bbox="true"
     inkscape:bbox-nodes="true"
     inkscape:window-width="1366"
     inkscape:window-height="713"
     inkscape:window-x="0"
     inkscape:window-y="27"
     inkscape:window-maximized="1">
    <inkscape:grid
       type="axonomgrid"
       id="grid4139"
       units="mm"
       empspacing="7" />
  </sodipodi:namedview>
  <metadata
     id="metadata7">
    <rdf:RDF>
      <cc:Work
         rdf:about="">
        <dc:format>image/svg+xml</dc:format>
        <dc:type
           rdf:resource="http://purl.org/dc/dcmitype/StillImage" />
        <dc:title />
      </cc:Work>
    </rdf:RDF>
  </metadata>
  <g
     inkscape:label="Layer 1"
     inkscape:groupmode="layer"
     id="layer1"
     transform="translate(0,-924.36216)"
     style="display:inline" />
  <g
     inkscape:groupmode="layer"
     id="layer2"
     inkscape:label="Layer 2">
    <g
       id="g4141"
       transform="matrix(1.059288,0,0,1.059288,-3.7944316,-3.7944369)">
      <path
         transform="matrix(0.8660254,0.5,-0.5,0.8660254,509.57086,-825.89223)"
         d="m 42.960316,1027.5591 c -1.240157,0 -20.860079,-11.3276 -21.480158,-12.4016 -0.620079,-1.074 -0.62008,-23.72915 -1e-6,-24.80315 0.620079,-1.07401 20.240001,-12.40158 21.480158,-12.40158 1.240158,0 20.86008,11.32757 21.480159,12.40157 0.620078,1.07401 0.620079,23.72916 0,24.80316 -0.620079,1.074 -20.24,12.4016 -21.480158,12.4016 z"
         inkscape:randomized="0"
         inkscape:rounded="0.05"
         inkscape:flatsided="true"
         sodipodi:arg2="2.0943951"
         sodipodi:arg1="1.5707963"
         sodipodi:r2="21.480158"
         sodipodi:r1="24.80315"
         sodipodi:cy="1002.7559"
         sodipodi:cx="42.960316"
         sodipodi:sides="6"
         id="path4165"
         style="display:inline;fill:#ffce41;fill-opacity:1;stroke:none;stroke-width:0;stroke-linecap:round;stroke-linejoin:round;stroke-miterlimit:4;stroke-dasharray:none;stroke-opacity:1"
         sodipodi:type="star" />
      <path
         transform="matrix(0.8660254,0.5,-0.5,0.8660254,509.57086,-825.89223)"
         d="m 64.440476,990.3543 c -1.240157,0 -20.86008,-11.32757 -21.480158,-12.40158 -0.620079,-1.074 -0.62008,-23.72914 -10e-7,-24.80315 0.620079,-1.074 20.24,-12.40157 21.480158,-12.40157 1.240157,0 20.860079,11.32756 21.480158,12.40157 0.620079,1.07401 0.62008,23.72914 1e-6,24.80315 -0.620079,1.07401 -20.24,12.40158 -21.480158,12.40158 z"
         inkscape:randomized="0"
         inkscape:rounded="0.05"
         inkscape:flatsided="true"
         sodipodi:arg2="2.0943951"
         sodipodi:arg1="1.5707963"
         sodipodi:r2="21.480158"
         sodipodi:r1="24.80315"
         sodipodi:cy="965.55115"
         sodipodi:cx="64.440475"
         sodipodi:sides="6"
         id="path4161"
         style="display:inline;fill:#f04136;fill-opacity:1;stroke:none;stroke-width:0;stroke-linecap:round;stroke-linejoin:round;stroke-miterlimit:4;stroke-dasharray:none;stroke-opacity:1"
         sodipodi:type="star" />
      <path
         transform="matrix(0.8660254,0.5,-0.5,0.8660254,509.57086,-825.89223)"
         d="m 85.920632,1027.5591 c -1.240157,0 -20.86008,-11.3276 -21.480158,-12.4016 -0.620079,-1.074 -0.62008,-23.72915 -10e-7,-24.80315 0.620079,-1.07401 20.24,-12.40158 21.480158,-12.40158 1.240157,0 20.860079,11.32757 21.480159,12.40157 0.62008,1.07401 0.62008,23.72916 0,24.80316 -0.62008,1.074 -20.24,12.4016 -21.480158,12.4016 z"
         inkscape:randomized="0"
         inkscape:rounded="0.05"
         inkscape:flatsided="true"
         sodipodi:arg2="2.0943951"
         sodipodi:arg1="1.5707963"
         sodipodi:r2="21.480158"
         sodipodi:r1="24.80315"
         sodipodi:cy="1002.7559"
         sodipodi:cx="85.920631"
         sodipodi:sides="6"
         id="path4163"
         style="display:inline;fill:#01a4f4;fill-opacity:1;stroke:none;stroke-width:0;stroke-linecap:round;stroke-linejoin:round;stroke-miterlimit:4;stroke-dasharray:none;stroke-opacity:1"
         sodipodi:type="star" />
      <path
         id="path4183"
         d="m 107.40506,42.519204 c -1.07401,-0.620079 -23.728104,-0.618592 -24.802112,0.0015 -1.074007,0.620079 -12.401368,20.23964 -12.401368,21.479798 1.074009,0.620078 23.728105,0.618592 24.802113,-0.0015 1.074008,-0.620079 12.401367,-20.239641 12.401367,-21.479798 z"
         style="fill:#ed4035;fill-opacity:1;stroke:none;stroke-width:0;stroke-linecap:round;stroke-linejoin:round;stroke-miterlimit:4;stroke-dasharray:none;stroke-opacity:1"
         inkscape:connector-curvature="0" />
      <path
         id="path4213"
         d="m 107.40515,85.479981 c -1.07401,-0.62008 -23.729793,-0.619569 -24.803801,5.1e-4 -1.074008,0.620079 -12.401368,20.239639 -12.401369,21.479799 1.074007,0.62008 23.729796,0.61957 24.803805,-5.1e-4 1.074009,-0.62008 12.401365,-20.239642 12.401365,-21.479799 z"
         style="fill:#01a2f1;fill-opacity:1;stroke:none;stroke-width:0;stroke-linecap:round;stroke-linejoin:round;stroke-miterlimit:4;stroke-dasharray:none;stroke-opacity:1"
         inkscape:connector-curvature="0" />
      <path
         id="path4216"
         d="m 70.201579,64.000491 c -1.074007,-0.620079 -23.729802,-0.619556 -24.803805,5.16e-4 -1.074005,0.620072 -12.401355,20.239617 -12.40135,21.479768 1.074007,0.620079 23.729777,0.6196 24.80378,-4.73e-4 C 58.874209,84.86023 70.201579,65.24065 70.201579,64.000491 Z"
         style="display:inline;fill:#fccc40;fill-opacity:1;stroke:none;stroke-width:0;stroke-linecap:round;stroke-linejoin:round;stroke-miterlimit:4;stroke-dasharray:none;stroke-opacity:1"
         inkscape:connector-curvature="0" />
    </g>
  </g>
</svg>
