<?xml version="1.0" encoding="UTF-8" standalone="no"?>
<!-- Created with Inkscape (http://www.inkscape.org/) -->

<svg
   xmlns:dc="http://purl.org/dc/elements/1.1/"
   xmlns:cc="http://creativecommons.org/ns#"
   xmlns:rdf="http://www.w3.org/1999/02/22-rdf-syntax-ns#"
   xmlns:svg="http://www.w3.org/2000/svg"
   xmlns="http://www.w3.org/2000/svg"
   xmlns:sodipodi="http://sodipodi.sourceforge.net/DTD/sodipodi-0.dtd"
   xmlns:inkscape="http://www.inkscape.org/namespaces/inkscape"
   width="128"
   height="128"
   viewBox="0 0 128 128"
   id="svg2"
   version="1.1"
   inkscape:version="0.91 r13725"
   sodipodi:docname="os_xubuntu.svg"
   inkscape:export-filename="/home/munlik/Pictures/128/os_xubuntu.png"
   inkscape:export-xdpi="90"
   inkscape:export-ydpi="90">
  <defs
     id="defs4" />
  <sodipodi:namedview
     id="base"
     pagecolor="#ffffff"
     bordercolor="#666666"
     borderopacity="1.0"
     inkscape:pageopacity="0.0"
     inkscape:pageshadow="2"
     inkscape:zoom="3.959798"
     inkscape:cx="36.165554"
     inkscape:cy="68.128478"
     inkscape:document-units="px"
     inkscape:current-layer="layer1"
     showgrid="false"
     units="px"
     inkscape:window-width="1366"
     inkscape:window-height="713"
     inkscape:window-x="0"
     inkscape:window-y="27"
     inkscape:window-maximized="1" />
  <metadata
     id="metadata7">
    <rdf:RDF>
      <cc:Work
         rdf:about="">
        <dc:format>image/svg+xml</dc:format>
        <dc:type
           rdf:resource="http://purl.org/dc/dcmitype/StillImage" />
        <dc:title />
        <dc:creator>
          <cc:Agent>
            <dc:title />
          </cc:Agent>
        </dc:creator>
        <dc:publisher>
          <cc:Agent>
            <dc:title />
          </cc:Agent>
        </dc:publisher>
        <cc:license
           rdf:resource="" />
      </cc:Work>
    </rdf:RDF>
  </metadata>
  <g
     inkscape:label="Layer 1"
     inkscape:groupmode="layer"
     id="layer1"
     transform="translate(0,-924.36216)">
    <circle
       style="color:#000000;clip-rule:nonzero;display:inline;overflow:visible;visibility:visible;opacity:1;isolation:auto;mix-blend-mode:normal;color-interpolation:sRGB;color-interpolation-filters:linearRGB;solid-color:#000000;solid-opacity:1;fill:#006bc6;fill-opacity:1;fill-rule:nonzero;stroke:none;stroke-width:1;stroke-linecap:butt;stroke-linejoin:miter;stroke-miterlimit:4;stroke-dasharray:none;stroke-dashoffset:0;stroke-opacity:1;color-rendering:auto;image-rendering:auto;shape-rendering:auto;text-rendering:auto;enable-background:accumulate"
       id="path4725"
       cx="64"
       cy="988.36218"
       r="46" />
  </g>
  <g
     inkscape:groupmode="layer"
     id="layer2"
     inkscape:label="Layer 2">
    <path
       id="path13"
       d="m 61.4,55.4 c -0.1,0 -0.1,0 0,0 C 61.3,55.2 61.3,55 61.2,54.4 61,52.7 61,52.5 61,52.5 c -0.1,-3 -0.1,-4.5 -0.1,-4.7 -0.2,-2.2 -0.3,-3.6 -1.1,-5.2 -0.4,-0.8 -0.9,-1.7 -2,-2.3 -1.6,-0.9 -3.2,-0.5 -3.4,-0.5 -1.5,0.4 -2.4,1.4 -2.6,1.7 -1,1.3 -1.2,2.7 -1.2,4.2 -0.1,2.1 0.3,3.8 0.9,6.1 0.3,1 0.7,1.7 1.1,3.3 0,0.2 0.1,0.5 -0.1,0.7 -0.3,0.3 -1,0.1 -1.5,-0.2 -0.7,-0.5 -1,-1.3 -1.1,-1.6 0,0 -0.3,-1 -2,-4.7 -0.7,-1.4 -1.7,-3.6 -3.9,-4.7 -0.6,-0.3 -1.6,-0.8 -2.8,-0.5 -2.3,0.5 -3,3.4 -3.1,3.7 -0.2,0.7 -0.2,1.2 -0.2,2.3 0,1.5 0.2,2.6 0.5,3.9 l 0,0 c 0,0 0.5,1.6 0.8,3.4 0.2,1.3 0.2,1.1 0.2,1.3 0,1.2 -0.5,1.9 -1,2.7 -0.2,0.3 -0.5,1.3 -1.3,3.4 -0.8,2.2 -1.1,4.1 -1.3,5.6 -0.4,2.9 -1.1,7.7 0.8,12.9 0.7,2.1 1.6,4.4 3.9,6.4 3.5,3 8.2,2.9 10.4,2.8 1.1,0 2.4,-0.1 5.8,-0.9 3.3,-0.8 7.4,-1.7 12.8,-3.9 1,-0.4 1.9,-0.8 3.6,-1.6 1.6,-0.8 2.5,-1.1 3.5,-1.7 0.7,-0.4 1.4,-0.8 2.7,-1.5 1.6,-0.9 2.4,-1.4 3.5,-2 1,-0.6 1.7,-1.1 2.5,-1.6 0.9,-0.6 1.6,-1.1 2.5,-1.7 1,-0.7 1.5,-1.1 2,-1.6 1.1,-1.1 1.7,-2.2 1.9,-2.5 0.4,-0.7 0.8,-1.5 0.9,-2.6 0.1,-1.3 -0.2,-2.4 -0.5,-3 -0.5,-1.3 -1.4,-2.5 -2.8,-3.7 -3,-2.6 -6.1,-3.7 -9.5,-5 C 79.2,59 76.8,58.1 73.7,57.4 71,56.7 69,56.4 68,56.3 66.1,56 65.2,55.9 64.7,55.9 c -0.9,0 -1.7,-0.2 -2.6,-0.2 -0.1,0 -0.5,0 -0.7,-0.3 z"
       inkscape:connector-curvature="0"
       style="display:inline;fill:#f2f2f2;fill-opacity:1;stroke:none" />
    <path
       id="path15"
       d="M 93,88.5"
       stroke-miterlimit="10"
       inkscape:connector-curvature="0"
       style="display:inline;fill:#f2f2f2;fill-opacity:1;stroke:none;stroke-miterlimit:10" />
    <path
       id="path17"
       d="m 76,53.9 c 0,-0.5 -0.1,-1.3 -0.1,-2.3 0,-1.2 0.1,-2 0.5,-4.9 0.2,-1.3 0.4,-3.3 0.8,-5.5 0.3,-1.7 0.3,-1.2 0.7,-3.1 0,-0.2 0.1,-0.6 0.3,-1.1 0.1,-0.4 0.3,-0.7 0.4,-0.8 l 0,0 c 0.2,-0.4 0.3,-0.6 0.4,-0.7 0.2,-0.2 0.5,-0.4 0.7,-0.4 0.5,0.1 0.6,2 0.7,2.8 0.1,1.9 0,3.5 -0.2,5.7 -0.2,2.6 -0.3,3.4 -0.4,3.7 -0.2,1.4 -0.4,2.2 -0.7,3.7 -0.2,0.8 -0.5,2 -1.3,3.4 -0.5,0.8 -0.8,0.9 -1,0.9 -0.5,0 -0.7,-0.6 -0.8,-1.4 z"
       inkscape:connector-curvature="0"
       style="display:inline;fill:#f2f2f2;fill-opacity:1;stroke:none" />
    <path
       id="path19"
       d="m 81.8,53 c 0.3,-0.9 0.6,-1.8 1.6,-3.7 0.9,-1.7 1.7,-2.9 2.7,-4.6 2.4,-3.8 2,-2.6 2.8,-4.1 0,0 0.4,-0.8 1.4,-1.8 0.6,-0.6 1,-0.9 1.5,-0.8 0.3,0 0.5,0.2 0.6,0.3 0.7,0.7 -0.6,3 -2.1,5.8 -1.8,3.4 -2.7,5 -3.1,6 -0.8,1.8 -1.8,3.4 -2.6,5.2 -0.3,0.6 -0.8,1.7 -1.8,1.9 -0.1,0 -0.7,0.1 -1.1,-0.2 -0.9,-0.8 -0.3,-2.7 0.1,-4 z"
       inkscape:connector-curvature="0"
       style="display:inline;fill:#f2f2f2;fill-opacity:1;stroke:none" />
  </g>
</svg>
