<?xml version="1.0" encoding="UTF-8" standalone="no"?>
<!-- Generator: Adobe Illustrator 22.1.0, SVG Export Plug-In . SVG Version: 6.00 Build 0)  -->

<svg
   xmlns:dc="http://purl.org/dc/elements/1.1/"
   xmlns:cc="http://creativecommons.org/ns#"
   xmlns:rdf="http://www.w3.org/1999/02/22-rdf-syntax-ns#"
   xmlns:svg="http://www.w3.org/2000/svg"
   xmlns="http://www.w3.org/2000/svg"
   xmlns:xlink="http://www.w3.org/1999/xlink"
   xmlns:sodipodi="http://sodipodi.sourceforge.net/DTD/sodipodi-0.dtd"
   xmlns:inkscape="http://www.inkscape.org/namespaces/inkscape"
   version="1.1"
   id="Ebene_1"
   x="0px"
   y="0px"
   viewBox="0 0 25.174433 24.200001"
   xml:space="preserve"
   sodipodi:docname="func_hidden.svg"
   width="25.174433"
   height="24.200001"
   inkscape:version="0.92.2 5c3e80d, 2017-08-06"><metadata
     id="metadata25"><rdf:RDF><cc:Work
         rdf:about=""><dc:format>image/svg+xml</dc:format><dc:type
           rdf:resource="http://purl.org/dc/dcmitype/StillImage" /><dc:title></dc:title></cc:Work></rdf:RDF></metadata><defs
     id="defs23" /><sodipodi:namedview
     pagecolor="#ffffff"
     bordercolor="#666666"
     borderopacity="1"
     objecttolerance="10"
     gridtolerance="10"
     guidetolerance="10"
     inkscape:pageopacity="0"
     inkscape:pageshadow="2"
     inkscape:window-width="640"
     inkscape:window-height="480"
     id="namedview21"
     showgrid="false"
     fit-margin-top="0"
     fit-margin-left="0"
     fit-margin-right="0"
     fit-margin-bottom="0"
     inkscape:zoom="9.44"
     inkscape:cx="12.95"
     inkscape:cy="11.7"
     inkscape:window-x="0"
     inkscape:window-y="0"
     inkscape:window-maximized="0"
     inkscape:current-layer="Ebene_1" /><style
     type="text/css"
     id="style2">
	.st0{clip-path:url(#SVGID_2_);fill:#808C99;}
	.st1{fill:#808C99;}
</style><g
     id="g18"><g
       id="g14"><defs
         id="defs5"><rect
           id="SVGID_1_"
           y="0"
           width="25.9"
           height="25"
           x="0" /></defs><clipPath
         id="SVGID_2_"><use
           xlink:href="#SVGID_1_"
           style="overflow:visible"
           id="use7"
           x="0"
           y="0"
           width="100%"
           height="100%" /></clipPath><path
         class="st0"
         d="M 6.8,13.7 8.7,14.8 6.2,9.9 0.6,10.1 2.4,11.2 0,15.7 c 0,0 2,3.6 3.3,5.7 0.5,0.9 1.3,1.4 2,1.4 h 7.1 V 17.7 H 4.7 Z m 0,0"
         clip-path="url(#SVGID_2_)"
         id="path10"
         inkscape:connector-curvature="0"
         style="fill:#808c99" /><path
         class="st0"
         d="m 13.4,7.9 5.4,0.3 2.6,-4.9 -1.8,1 L 16.8,0 c 0,0 -4.1,0 -6.6,0.1 C 9.2,0.2 8.4,0.5 8,1.2 l -3.4,6.1 4.5,2.5 3.8,-6.7 2.3,3.7 z m 0,0"
         clip-path="url(#SVGID_2_)"
         id="path12"
         inkscape:connector-curvature="0"
         style="fill:#808c99" /></g><path
       class="st1"
       d="m 25,14.2 -3.4,-6.3 -4.5,2.4 3.7,6.8 h -4.4 l 0.1,-2 -3.1,4.3 2.8,4.8 0.1,-2.1 h 5.1 c 0,0 2.2,-3.4 3.4,-5.6 0.4,-0.8 0.5,-1.7 0.2,-2.3 z m 0,0"
       id="path16"
       inkscape:connector-curvature="0"
       style="fill:#808c99" /></g></svg>