<?xml version="1.0" encoding="UTF-8" standalone="no"?>
<!-- Generator: Adobe Illustrator 22.1.0, SVG Export Plug-In . SVG Version: 6.00 Build 0)  -->

<svg
   xmlns:dc="http://purl.org/dc/elements/1.1/"
   xmlns:cc="http://creativecommons.org/ns#"
   xmlns:rdf="http://www.w3.org/1999/02/22-rdf-syntax-ns#"
   xmlns:svg="http://www.w3.org/2000/svg"
   xmlns="http://www.w3.org/2000/svg"
   xmlns:xlink="http://www.w3.org/1999/xlink"
   xmlns:sodipodi="http://sodipodi.sourceforge.net/DTD/sodipodi-0.dtd"
   xmlns:inkscape="http://www.inkscape.org/namespaces/inkscape"
   version="1.1"
   id="Ebene_1"
   x="0px"
   y="0px"
   viewBox="0 0 30.590961 48.000001"
   xml:space="preserve"
   sodipodi:docname="tool_fwupdate.svg"
   inkscape:version="0.92.2 5c3e80d, 2017-08-06"
   width="30.590961"
   height="48"><metadata
     id="metadata25"><rdf:RDF><cc:Work
         rdf:about=""><dc:format>image/svg+xml</dc:format><dc:type
           rdf:resource="http://purl.org/dc/dcmitype/StillImage" /><dc:title></dc:title></cc:Work></rdf:RDF></metadata><defs
     id="defs23" /><sodipodi:namedview
     pagecolor="#ffffff"
     bordercolor="#666666"
     borderopacity="1"
     objecttolerance="10"
     gridtolerance="10"
     guidetolerance="10"
     inkscape:pageopacity="0"
     inkscape:pageshadow="2"
     inkscape:window-width="1856"
     inkscape:window-height="950"
     id="namedview21"
     showgrid="false"
     inkscape:zoom="15.6875"
     inkscape:cx="15.295481"
     inkscape:cy="24"
     inkscape:window-x="0"
     inkscape:window-y="0"
     inkscape:window-maximized="1"
     inkscape:current-layer="g18"
     fit-margin-top="0"
     fit-margin-left="0"
     fit-margin-right="0"
     fit-margin-bottom="0"
     showguides="false" /><style
     type="text/css"
     id="style2">
	.st0{clip-path:url(#SVGID_2_);fill:#808C99;}
	.st1{fill:#808C99;}
</style><g
     id="g18"
     transform="matrix(0.29090909,0,0,0.29090909,0,-27.316363)"><g
       id="g53"
       transform="matrix(0.63731171,0,0,0.63731171,0,93.899999)"><g
         id="g34"><g
           id="g14"><g
             id="g12"><defs
               id="defs5"><rect
                 id="SVGID_1_"
                 x="0"
                 y="92.099998"
                 width="165"
                 height="166.8" /></defs><clipPath
               id="SVGID_2_"><use
                 xlink:href="#SVGID_1_"
                 style="overflow:visible"
                 id="use7"
                 x="0"
                 y="0"
                 width="100%"
                 height="100%" /></clipPath><path
               class="st0"
               d="m 18.5,150.2 v 50.5 h 130.2 v -50.5 z m 41,35.7 v 5.9 H 55 v -5.9 z m -7.4,0 v 5.9 h -4.5 v -5.9 z m -8.1,0 v 5.9 H 25 v -5.9 z M 0,134.7 v 81.6 c 0,1.1 0.9,2 2,2 h 163.2 c 1.1,0 2,-0.9 2,-2 v -81.6 c 0,-1.1 -0.9,-2 -2,-2 H 2 c -1.1,0 -2,0.8 -2,2 z M 153.9,145 v 61 H 13.3 V 145 Z M 20,103.9 V 92 h 7.3 v 11.9 h 2.1 v 25.2 H 17.9 v -25.2 z m 24,0 V 92 h 7.3 v 11.9 h 2.1 v 25.2 H 41.9 v -25.2 z m 24,0 V 92 h 7.3 v 11.9 h 2.1 v 25.2 H 65.9 v -25.2 z m 24,0 V 92 h 7.3 v 11.9 h 2.1 v 25.2 H 89.9 v -25.2 z m 24,0 V 92 h 7.3 v 11.9 h 2.1 v 25.2 h -11.5 v -25.2 z m 24,0 V 92 h 7.3 v 11.9 h 2.1 v 25.2 H 137.9 V 103.9 Z M 17.9,247 V 221.8 H 29.4 V 247 h -2.1 v 11.9 H 20 V 247 Z m 24,0 V 221.8 H 53.4 V 247 h -2.1 v 11.9 H 44 V 247 Z m 24,0 V 221.8 H 77.4 V 247 h -2.1 v 11.9 H 68 V 247 Z m 24,0 v -25.2 h 11.5 V 247 h -2.1 v 11.9 H 92 V 247 Z m 24,0 v -25.2 h 11.5 V 247 h -2.1 v 11.9 H 116 V 247 Z m 24,0 v -25.2 h 11.5 V 247 h -2.1 v 11.9 H 140 V 247 Z m 0,0"
               clip-path="url(#SVGID_2_)"
               id="path10"
               inkscape:connector-curvature="0"
               style="fill:#808c99" /></g></g></g><path
         id="path16"
         d="M 102.3,46 H 120 L 84.6,92.1 49.2,46 H 66.9 V 0 h 35.4 z m 0,0"
         class="st1"
         inkscape:connector-curvature="0"
         style="fill:#808c99" /></g></g></svg>